<svg width="430" height="932" viewBox="0 0 430 932" fill="none" xmlns="http://www.w3.org/2000/svg">
<g clip-path="url(#clip0_1_113)">
<rect width="430" height="932" fill="white"/>
<g filter="url(#filter0_f_1_113)">
<circle cx="21" cy="202" r="146" fill="url(#paint0_radial_1_113)" fill-opacity="0.4"/>
</g>
<g filter="url(#filter1_f_1_113)">
<circle cx="410" cy="490" r="142" fill="url(#paint1_radial_1_113)" fill-opacity="0.4"/>
</g>
<g filter="url(#filter2_f_1_113)">
<circle cx="120.5" cy="836.5" r="160.5" fill="url(#paint2_radial_1_113)" fill-opacity="0.4"/>
</g>
<path d="M316.536 784.017V796.52H314.381L308.773 787.564V796.52H306.618V784.017H308.773L314.398 792.991V784.017H316.536ZM327.288 794.812V796.52H320.65V794.812H327.288ZM321.259 784.017V796.52H319.104V784.017H321.259ZM326.42 789.238V790.921H320.65V789.238H326.42ZM327.245 784.017V785.735H320.65V784.017H327.245ZM330.688 784.017L333.342 788.577L335.995 784.017H338.477L334.699 790.209L338.571 796.52H336.064L333.342 791.875L330.619 796.52H328.103L331.985 790.209L328.198 784.017H330.688ZM345.304 784.017V796.52H343.166V784.017H345.304ZM349.228 784.017V785.735H339.276V784.017H349.228Z" fill="white"/>
</g>
<defs>
<filter id="filter0_f_1_113" x="-225" y="-44" width="492" height="492" filterUnits="userSpaceOnUse" color-interpolation-filters="sRGB">
<feFlood flood-opacity="0" result="BackgroundImageFix"/>
<feBlend mode="normal" in="SourceGraphic" in2="BackgroundImageFix" result="shape"/>
<feGaussianBlur stdDeviation="50" result="effect1_foregroundBlur_1_113"/>
</filter>
<filter id="filter1_f_1_113" x="168" y="248" width="484" height="484" filterUnits="userSpaceOnUse" color-interpolation-filters="sRGB">
<feFlood flood-opacity="0" result="BackgroundImageFix"/>
<feBlend mode="normal" in="SourceGraphic" in2="BackgroundImageFix" result="shape"/>
<feGaussianBlur stdDeviation="50" result="effect1_foregroundBlur_1_113"/>
</filter>
<filter id="filter2_f_1_113" x="-140" y="576" width="521" height="521" filterUnits="userSpaceOnUse" color-interpolation-filters="sRGB">
<feFlood flood-opacity="0" result="BackgroundImageFix"/>
<feBlend mode="normal" in="SourceGraphic" in2="BackgroundImageFix" result="shape"/>
<feGaussianBlur stdDeviation="50" result="effect1_foregroundBlur_1_113"/>
</filter>
<radialGradient id="paint0_radial_1_113" cx="0" cy="0" r="1" gradientUnits="userSpaceOnUse" gradientTransform="translate(21 202) rotate(90) scale(146)">
<stop stop-color="#407BFF"/>
<stop offset="1" stop-color="#40DDFF"/>
</radialGradient>
<radialGradient id="paint1_radial_1_113" cx="0" cy="0" r="1" gradientUnits="userSpaceOnUse" gradientTransform="translate(410 490) rotate(90) scale(142)">
<stop stop-color="#A7E954"/>
<stop offset="1" stop-color="#FFD540"/>
</radialGradient>
<radialGradient id="paint2_radial_1_113" cx="0" cy="0" r="1" gradientUnits="userSpaceOnUse" gradientTransform="translate(120.5 836.5) rotate(90) scale(160.5)">
<stop stop-color="#D6FFFA"/>
<stop offset="1" stop-color="#A7E954"/>
</radialGradient>
<clipPath id="clip0_1_113">
<rect width="430" height="932" fill="white"/>
</clipPath>
</defs>
</svg>
