<svg width="384" height="385" viewBox="0 0 384 385" fill="none" xmlns="http://www.w3.org/2000/svg">
<path d="M21.7 382C12.8 382 5.9 381.2 5.9 373.1V332.9C5.9 324.9 5.3 320.6 3.8 317H36.6C45.7 317 50 317.2 53.6 315.8C55.2 323.6 54.5 328.6 44.5 328.6H21.7V342.7H34C39.6 342.7 44 342.6 47.6 340.8C49.4 349.8 45.9 354 37.8 354H21.7V370.1H41.3C46.8 370.1 51.2 369.8 54.9 367.6C56.5 376 54 381.7 46.3 382H21.7ZM82.0031 382C72.7031 383.7 64.1031 382.2 64.1031 372.7V332.1C64.1031 324.9 63.5031 320.5 62.0031 317C71.3031 314.4 79.9031 315 79.9031 325.4V344.4L99.4031 325.7C102.403 322.9 104.703 320.6 105.703 316.8C117.703 314 121.703 323.2 115.503 328.6L98.5031 343.2L114.603 370.4C117.503 375.6 119.003 378 121.603 380.5C109.503 384.4 102.703 383.5 99.0031 375.2L86.6031 353.6L79.9031 359.3V366.9C79.9031 374 80.5031 378.4 82.0031 382ZM138.568 382C128.968 384.4 121.768 380.3 125.368 371.5L141.368 333C142.968 329 144.568 324.7 144.968 319.4C152.868 315.7 160.968 313.3 163.968 323L178.568 368.2C180.468 374.4 181.668 377.9 183.868 380.8C176.368 383.9 164.768 383.8 162.668 375.7L159.868 365.7C153.268 365.7 148.068 365.9 141.368 365.9L139.868 370C138.468 374.6 138.368 378.6 138.568 382ZM144.568 355.2C148.868 355.3 152.868 355.1 157.068 355.1L151.668 336.3H150.968L144.568 355.2ZM200.775 382C191.175 384.4 183.975 380.3 187.575 371.5L203.575 333C205.175 329 206.775 324.7 207.175 319.4C215.075 315.7 223.175 313.3 226.175 323L240.775 368.2C242.675 374.4 243.875 377.9 246.075 380.8C238.575 383.9 226.975 383.8 224.875 375.7L222.075 365.7C215.475 365.7 210.275 365.9 203.575 365.9L202.075 370C200.675 374.6 200.575 378.6 200.775 382ZM206.775 355.2C211.075 355.3 215.075 355.1 219.275 355.1L213.875 336.3H213.175L206.775 355.2ZM269.698 382C260.398 383.7 251.798 382.2 251.798 372.7V332.7C251.798 325.5 251.198 321.1 249.698 317.6C257.098 315.6 264.898 315.1 267.698 319.7C272.698 327.8 282.898 341.8 290.898 352.6H291.598V332.7C291.598 325.5 290.898 321.1 289.498 317.6C300.198 315.2 307.298 316.2 307.298 326.1V366.9C307.298 374 307.998 378.4 309.398 382C302.698 383.2 296.198 382.8 293.298 378.7C283.998 365.4 277.998 357.5 268.298 343.5H267.598V366.9C267.598 374 268.198 378.4 269.698 382ZM351.991 382C342.791 383.7 334.191 382.2 334.191 372.7V328.5H328.091C323.491 328.5 318.991 328.7 315.491 330C314.191 321.9 315.991 317 325.391 317H354.091C361.291 317 365.691 317 369.191 315.7C370.791 323.8 369.791 328.5 360.191 328.5H349.891V366.9C349.891 374 350.491 378.4 351.991 382Z" fill="#163B4B"/>
<path d="M54.1495 30.0667V41.875H69.5912L71.4079 35.5167L74.1329 28.25L81.3995 20.9833L91.3912 16.4417L100.475 14.625L116.825 8.26667L113.191 3.725L96.8412 1L78.6745 3.725L66.8662 14.625L54.1495 30.0667Z" fill="#163B4B" stroke="white"/>
<path d="M105.017 41.875L94.1171 17.35L125.909 5.54167L137.717 26.4333L105.017 41.875Z" fill="#163B4B"/>
<path d="M98.6587 15.5333L94.1171 17.35M94.1171 17.35L105.017 41.875L137.717 26.4333L125.909 5.54167L94.1171 17.35Z" stroke="white"/>
<rect x="16" y="268.958" width="327" height="18.1667" fill="#163B4B"/>
<rect x="52.3336" y="265.325" width="223.45" height="18.1667" transform="rotate(-90 52.3336 265.325)" fill="#163B4B"/>
<path d="M105.017 265.325C105.017 277.365 87.123 287.125 65.05 287.125C42.9771 287.125 25.0834 277.365 25.0834 265.325C25.0834 253.285 42.9771 243.525 65.05 243.525C87.123 243.525 105.017 253.285 105.017 265.325Z" fill="#163B4B"/>
<path d="M97.7504 46.4167L105.017 43.6917L138.625 27.3417L148.617 28.25L184.042 60.0417L94.1171 98.1917L97.7504 46.4167Z" fill="#163B4B" stroke="white"/>
<path d="M123.184 126.35L110.467 91.8333L169.509 67.3083L181.317 89.1083L185.859 100.008H177.684H162.242V110L155.884 115.45L144.075 113.633L134.992 110L127.725 129.075L123.184 126.35Z" fill="#163B4B" stroke="white"/>
<path d="M54.1495 30.0667V41.875H69.5912L71.4079 35.5167L74.1329 28.25L81.3995 20.9833L91.3912 16.4417L100.475 14.625L116.825 8.26667L113.191 3.725L96.8412 1L78.6745 3.725L66.8662 14.625L54.1495 30.0667Z" fill="#163B4B" stroke="white"/>
<path d="M105.017 41.875L94.1171 17.35L125.909 5.54167L137.717 26.4333L105.017 41.875Z" fill="#163B4B"/>
<path d="M98.6587 15.5333L94.1171 17.35M94.1171 17.35L105.017 41.875L137.717 26.4333L125.909 5.54167L94.1171 17.35Z" stroke="white"/>
<rect x="16" y="268.958" width="327" height="18.1667" fill="#163B4B"/>
<rect x="52.3336" y="265.325" width="223.45" height="18.1667" transform="rotate(-90 52.3336 265.325)" fill="#163B4B"/>
<path d="M105.017 265.325C105.017 277.365 87.123 287.125 65.05 287.125C42.9771 287.125 25.0834 277.365 25.0834 265.325C25.0834 253.285 42.9771 243.525 65.05 243.525C87.123 243.525 105.017 253.285 105.017 265.325Z" fill="#163B4B"/>
<path d="M97.7504 46.4167L105.017 43.6917L138.625 27.3417L148.617 28.25L184.042 60.0417L94.1171 98.1917L97.7504 46.4167Z" fill="#163B4B" stroke="white"/>
<path d="M123.184 126.35L110.467 91.8333L169.509 67.3083L181.317 89.1083L185.859 100.008H177.684H162.242V110L155.884 115.45L144.075 113.633L134.992 110L127.725 129.075L123.184 126.35Z" fill="#E7B553" stroke="white"/>
<path d="M134.992 191.75L129.542 199.017L135.9 207.192L140.442 214.458L144.075 220.817L147.709 228.083L152.25 235.35L164.059 234.442L156.792 222.633L150.434 211.733L144.075 201.742L139.534 192.658L134.992 191.75Z" fill="#163B4B" stroke="white"/>
<path d="M143.167 237.167L150.433 235.35H155.883H165.875L171.325 237.167L175.867 239.892L177.683 245.342V252.608L172.233 256.242L168.6 259.875L164.967 263.508H155.883H143.167L135.9 265.325L121.367 263.508L113.192 258.058L109.558 250.792V241.708L112.283 235.35L115.917 229.9L119.55 221.725L123.183 215.367L127.725 211.733L131.358 215.367L135.9 221.725L139.533 227.175L137.717 235.35L143.167 237.167Z" fill="#163B4B" stroke="white"/>
<path d="M268.516 250.792L253.983 254.425V256.242H256.708H262.158L266.7 255.333L270.333 254.425H277.6H284.866H294.858L297.583 256.242L299.4 254.425L298.491 250.792H285.775H268.516Z" fill="#163B4B" stroke="white"/>
<path d="M326.65 268.958H307.575V252.608V243.525L303.941 237.167L297.583 235.35L292.133 233.533H283.05L272.15 235.35L263.066 239.892L253.983 245.342L246.716 250.792L238.541 256.242L227.641 254.425L218.558 256.242L213.108 259.875L206.75 261.692L198.575 257.15L190.4 254.425L184.95 253.517L184.041 245.342V237.167L179.5 229.9L171.325 228.083L165.875 224.45L163.15 218.092L158.608 210.825L151.341 200.833L148.616 191.75L153.158 188.117L165.875 180.85L175.866 176.308L191.308 174.492L194.941 176.308L196.758 183.575L200.391 194.475L209.475 205.375L220.375 212.642L235.816 214.458L248.533 210.825L261.25 205.375L270.333 197.2L279.416 186.3L289.408 191.75L302.125 199.925L311.208 212.642L320.291 229.9L325.741 252.608L326.65 268.958Z" fill="#163B4B" stroke="white"/>
<path d="M216.741 154.508L212.2 159.05V159.958L214.016 161.775L216.741 159.958L223.1 155.417L227.641 152.692L226.733 149.058L222.191 150.875L216.741 154.508Z" fill="#163B4B" stroke="white"/>
<path d="M222.192 135.433L219.467 125.442H215.833L212.2 130.892L207.658 135.433V143.608V155.417V168.133L212.2 175.4L218.558 181.758L227.642 188.117L239.45 191.75L253.983 189.025L261.25 183.575L265.792 179.033L268.517 175.4H273.058V179.033L268.517 184.483L261.25 189.933L254.892 195.383H244.9H231.275L222.192 191.75L214.017 187.208L207.658 179.942L203.117 169.95L199.483 161.775V152.692V145.425L195.85 143.608V138.158L197.667 125.442L203.117 119.083L207.658 114.542L214.017 111.817H219.467V108.183L222.192 102.733L233.092 99.1L244.9 96.375L261.25 99.1L273.058 104.55L283.958 114.542L291.225 125.442L296.675 138.158V152.692V166.317H293.042L281.233 164.5L268.517 161.775L258.525 159.958L249.442 155.417L237.633 149.058L229.458 143.608L222.192 135.433Z" fill="#163B4B" stroke="white"/>
</svg>
