<svg width="30" height="26" viewBox="0 0 30 26" fill="none" xmlns="http://www.w3.org/2000/svg">
<g clip-path="url(#clip0_18_2205)">
<path d="M25.2019 9.23698C23.9185 4.42448 18.9928 2.25781 14.6661 2.25781C14.6661 2.25781 14.6661 2.25781 14.6538 2.25781C10.3393 2.25781 5.4014 4.41406 4.11804 9.22656C2.688 14.6016 6.55032 19.1536 10.046 22.0182C11.3415 23.0807 13.0038 23.612 14.6661 23.612C16.3283 23.612 17.9906 23.0807 19.274 22.0182C22.7696 19.1536 26.6319 14.612 25.2019 9.23698ZM14.6661 14.4557C12.5393 14.4557 10.816 12.987 10.816 11.1745C10.816 9.36198 12.5393 7.89323 14.6661 7.89323C16.7928 7.89323 18.5162 9.36198 18.5162 11.1745C18.5162 12.987 16.7928 14.4557 14.6661 14.4557Z" fill="#0077B6"/>
</g>
<defs>
<clipPath id="clip0_18_2205">
<rect width="29.334" height="25" fill="white" transform="translate(0 0.435547)"/>
</clipPath>
</defs>
</svg>
