
<svg width="47" height="48" viewBox="0 0 47 48" fill="none" xmlns="http://www.w3.org/2000/svg">
<path d="M5.48242 5.7746V7.71429H7.70187L7.96298 6.66984L8.35464 5.47619L9.39909 4.28254L10.8352 3.53651L12.1408 3.2381L14.4908 2.19365L13.9685 1.44762L11.6185 1L9.00742 1.44762L7.3102 3.2381L5.48242 5.7746Z" fill="white" stroke="white"/>
<path d="M12.7932 7.71435L11.2266 3.68578L15.796 1.74609L17.4932 5.17784L12.7932 7.71435Z" fill="white"/>
<path d="M11.8793 3.38736L11.2266 3.68578M11.2266 3.68578L12.7932 7.71435L17.4932 5.17784L15.796 1.74609L11.2266 3.68578Z" stroke="white"/>
<rect y="45.0156" width="47" height="2.98413" fill="white"/>
<rect x="5.22266" y="44.418" width="36.7048" height="2.61111" transform="rotate(-90 5.22266 44.418)" fill="white"/>
<path d="M12.7936 44.4188C12.7936 46.3965 10.2217 47.9998 7.04913 47.9998C3.87656 47.9998 1.30469 46.3965 1.30469 44.4188C1.30469 42.4411 3.87656 40.8379 7.04913 40.8379C10.2217 40.8379 12.7936 42.4411 12.7936 44.4188Z" fill="white"/>
<path d="M11.7488 8.45951L12.7932 8.01189L17.6238 5.32617L19.0599 5.47538L24.1516 10.6976L11.2266 16.9643L11.7488 8.45951Z" fill="white" stroke="white"/>
<path d="M15.4059 21.589L13.5781 15.9192L22.0642 11.8906L23.7615 15.4716L24.4142 17.2621H23.2392H21.0198V18.9033L20.1059 19.7986L18.4087 19.5001L17.1031 18.9033L16.0587 22.0367L15.4059 21.589Z" fill="white" stroke="white"/>
<path d="M5.48242 5.7746V7.71429H7.70187L7.96298 6.66984L8.35464 5.47619L9.39909 4.28254L10.8352 3.53651L12.1408 3.2381L14.4908 2.19365L13.9685 1.44762L11.6185 1L9.00742 1.44762L7.3102 3.2381L5.48242 5.7746Z" fill="white" stroke="white"/>
<path d="M12.7932 7.71435L11.2266 3.68578L15.796 1.74609L17.4932 5.17784L12.7932 7.71435Z" fill="white"/>
<path d="M11.8793 3.38736L11.2266 3.68578M11.2266 3.68578L12.7932 7.71435L17.4932 5.17784L15.796 1.74609L11.2266 3.68578Z" stroke="white"/>
<rect y="45.0156" width="47" height="2.98413" fill="white"/>
<rect x="5.22266" y="44.418" width="36.7048" height="2.61111" transform="rotate(-90 5.22266 44.418)" fill="white"/>
<path d="M12.7936 44.4188C12.7936 46.3965 10.2217 47.9998 7.04913 47.9998C3.87656 47.9998 1.30469 46.3965 1.30469 44.4188C1.30469 42.4411 3.87656 40.8379 7.04913 40.8379C10.2217 40.8379 12.7936 42.4411 12.7936 44.4188Z" fill="white"/>
<path d="M11.7488 8.45951L12.7932 8.01189L17.6238 5.32617L19.0599 5.47538L24.1516 10.6976L11.2266 16.9643L11.7488 8.45951Z" fill="white" stroke="white"/>
<path d="M15.4059 21.589L13.5781 15.9192L22.0642 11.8906L23.7615 15.4716L24.4142 17.2621H23.2392H21.0198V18.9033L20.1059 19.7986L18.4087 19.5001L17.1031 18.9033L16.0587 22.0367L15.4059 21.589Z" fill="white" stroke="white"/>
<path d="M17.1036 32.334L16.3203 33.5276L17.2342 34.8705L17.887 36.0641L18.4092 37.1086L18.9314 38.3022L19.5842 39.4959L21.2814 39.3467L20.237 37.407L19.3231 35.6165L18.4092 33.9753L17.7564 32.4832L17.1036 32.334Z" fill="white" stroke="white"/>
<path d="M18.2778 39.793L19.3223 39.4946H20.1056H21.5417L22.325 39.793L22.9778 40.2406L23.2389 41.1359V42.3295L22.4556 42.9263L21.9334 43.5232L21.4112 44.12H20.1056H18.2778L17.2334 44.4184L15.1445 44.12L13.9695 43.2248L13.4473 42.0311V40.539L13.8389 39.4946L14.3612 38.5994L14.8834 37.2565L15.4056 36.2121L16.0584 35.6152L16.5806 36.2121L17.2334 37.2565L17.7556 38.1517L17.4945 39.4946L18.2778 39.793Z" fill="white" stroke="white"/>
<path d="M36.294 42.0312L34.2051 42.6281V42.9265H34.5967H35.3801L36.0329 42.7773L36.5551 42.6281H37.5995H38.644H40.0801L40.4717 42.9265L40.7329 42.6281L40.6023 42.0312H38.7745H36.294Z" fill="white" stroke="white"/>
<path d="M44.6514 45.0155H41.9097V42.3298V40.8377L41.3875 39.7933L40.4736 39.4949L39.6903 39.1965H38.3847L36.8181 39.4949L35.5125 40.2409L34.2069 41.1361L33.1625 42.0314L31.9875 42.9266L30.4208 42.6282L29.1153 42.9266L28.3319 43.5234L27.4181 43.8219L26.2431 43.0758L25.0681 42.6282L24.2847 42.479L24.1542 41.1361V39.7933L23.5014 38.5996L22.3264 38.3012L21.5431 37.7044L21.1514 36.66L20.4986 35.4663L19.4542 33.825L19.0625 32.333L19.7153 31.7361L21.5431 30.5425L22.9792 29.7965L25.1986 29.498L25.7208 29.7965L25.9819 30.9901L26.5042 32.7806L27.8097 34.5711L29.3764 35.7647L31.5958 36.0631L33.4236 35.4663L35.2514 34.5711L36.5569 33.2282L37.8625 31.4377L39.2986 32.333L41.1264 33.6758L42.4319 35.7647L43.7375 38.5996L44.5208 42.3298L44.6514 45.0155Z" fill="white" stroke="white"/>
<path d="M28.852 26.2156L28.1992 26.9616V27.1108L28.4603 27.4092L28.852 27.1108L29.7659 26.3648L30.4187 25.9171L30.2881 25.3203L29.6353 25.6187L28.852 26.2156Z" fill="white" stroke="white"/>
<path d="M29.6357 23.0819L29.2441 21.4406H28.7218L28.1996 22.3359L27.5468 23.0819V24.4247V26.3644V28.4533L28.1996 29.647L29.1135 30.6914L30.4191 31.7359L32.1163 32.3327L34.2052 31.8851L35.2496 30.9898L35.9024 30.2438L36.2941 29.647H36.9468V30.2438L36.2941 31.139L35.2496 32.0343L34.3357 32.9295H32.8996H30.9413L29.6357 32.3327L28.4607 31.5867L27.5468 30.393L26.8941 28.7517L26.3718 27.4089V25.9168V24.7232L25.8496 24.4247V23.5295L26.1107 21.4406L26.8941 20.3962L27.5468 19.6501L28.4607 19.2025H29.2441V18.6057L29.6357 17.7105L31.2024 17.1136L32.8996 16.666L35.2496 17.1136L36.9468 18.0089L38.5135 19.6501L39.5579 21.4406L40.3413 23.5295V25.9168V28.1549H39.8191L38.1218 27.8565L36.2941 27.4089L34.8579 27.1105L33.5524 26.3644L31.8552 25.32L30.6802 24.4247L29.6357 23.0819Z" fill="white" stroke="white"/>
</svg>
