<svg width="269" height="35" viewBox="0 0 269 35" fill="none" xmlns="http://www.w3.org/2000/svg">
<path d="M32.064 7.664L25.824 30H20.544L16.352 14.096L11.968 30L6.72 30.032L0.704 7.664H5.504L9.44 25.008L13.984 7.664H18.976L23.264 24.912L27.232 7.664H32.064ZM51.4693 20.752C51.4693 21.392 51.4266 21.968 51.3413 22.48H38.3813C38.4879 23.76 38.9359 24.7627 39.7253 25.488C40.5146 26.2133 41.4853 26.576 42.6373 26.576C44.3013 26.576 45.4853 25.8613 46.1893 24.432H51.0213C50.5093 26.1387 49.5279 27.5467 48.0773 28.656C46.6266 29.744 44.8453 30.288 42.7333 30.288C41.0266 30.288 39.4906 29.9147 38.1253 29.168C36.7813 28.4 35.7253 27.3227 34.9573 25.936C34.2106 24.5493 33.8372 22.9493 33.8372 21.136C33.8372 19.3013 34.2106 17.6907 34.9573 16.304C35.7039 14.9173 36.7493 13.8507 38.0933 13.104C39.4373 12.3573 40.9839 11.984 42.7333 11.984C44.4186 11.984 45.9226 12.3467 47.2453 13.072C48.5893 13.7973 49.6239 14.832 50.3493 16.176C51.0959 17.4987 51.4693 19.024 51.4693 20.752ZM46.8293 19.472C46.8079 18.32 46.3919 17.4027 45.5813 16.72C44.7706 16.016 43.7786 15.664 42.6053 15.664C41.4959 15.664 40.5573 16.0053 39.7893 16.688C39.0426 17.3493 38.5839 18.2773 38.4133 19.472H46.8293ZM59.2193 6.32V30H54.7393V6.32H59.2193ZM62.4935 21.136C62.4935 19.3013 62.8668 17.7013 63.6135 16.336C64.3602 14.9493 65.3948 13.8827 66.7175 13.136C68.0402 12.368 69.5548 11.984 71.2615 11.984C73.4588 11.984 75.2722 12.5387 76.7015 13.648C78.1522 14.736 79.1228 16.272 79.6135 18.256H74.7815C74.5255 17.488 74.0882 16.8907 73.4695 16.464C72.8722 16.016 72.1255 15.792 71.2295 15.792C69.9495 15.792 68.9362 16.2613 68.1895 17.2C67.4428 18.1173 67.0695 19.4293 67.0695 21.136C67.0695 22.8213 67.4428 24.1333 68.1895 25.072C68.9362 25.9893 69.9495 26.448 71.2295 26.448C73.0428 26.448 74.2268 25.6373 74.7815 24.016H79.6135C79.1228 25.936 78.1522 27.4613 76.7015 28.592C75.2508 29.7227 73.4375 30.288 71.2615 30.288C69.5548 30.288 68.0402 29.9147 66.7175 29.168C65.3948 28.4 64.3602 27.3333 63.6135 25.968C62.8668 24.5813 62.4935 22.9707 62.4935 21.136ZM90.7675 30.288C89.0608 30.288 87.5248 29.9147 86.1595 29.168C84.7942 28.4 83.7168 27.3227 82.9275 25.936C82.1595 24.5493 81.7755 22.9493 81.7755 21.136C81.7755 19.3227 82.1702 17.7227 82.9595 16.336C83.7702 14.9493 84.8688 13.8827 86.2555 13.136C87.6422 12.368 89.1888 11.984 90.8955 11.984C92.6022 11.984 94.1488 12.368 95.5355 13.136C96.9222 13.8827 98.0102 14.9493 98.7995 16.336C99.6102 17.7227 100.016 19.3227 100.016 21.136C100.016 22.9493 99.5995 24.5493 98.7675 25.936C97.9568 27.3227 96.8475 28.4 95.4395 29.168C94.0528 29.9147 92.4955 30.288 90.7675 30.288ZM90.7675 26.384C91.5782 26.384 92.3355 26.192 93.0395 25.808C93.7648 25.4027 94.3408 24.8053 94.7675 24.016C95.1942 23.2267 95.4075 22.2667 95.4075 21.136C95.4075 19.4507 94.9595 18.16 94.0635 17.264C93.1888 16.3467 92.1115 15.888 90.8315 15.888C89.5515 15.888 88.4742 16.3467 87.5995 17.264C86.7462 18.16 86.3195 19.4507 86.3195 21.136C86.3195 22.8213 86.7355 24.1227 87.5675 25.04C88.4208 25.936 89.4875 26.384 90.7675 26.384ZM125.318 12.016C127.494 12.016 129.243 12.688 130.566 14.032C131.91 15.3547 132.582 17.2107 132.582 19.6V30H128.102V20.208C128.102 18.8213 127.75 17.7653 127.046 17.04C126.342 16.2933 125.382 15.92 124.166 15.92C122.95 15.92 121.979 16.2933 121.254 17.04C120.55 17.7653 120.198 18.8213 120.198 20.208V30H115.718V20.208C115.718 18.8213 115.366 17.7653 114.662 17.04C113.958 16.2933 112.998 15.92 111.782 15.92C110.544 15.92 109.563 16.2933 108.838 17.04C108.134 17.7653 107.782 18.8213 107.782 20.208V30H103.302V12.272H107.782V14.416C108.358 13.6693 109.094 13.0827 109.99 12.656C110.907 12.2293 111.91 12.016 112.998 12.016C114.384 12.016 115.622 12.3147 116.71 12.912C117.798 13.488 118.64 14.32 119.238 15.408C119.814 14.384 120.646 13.5627 121.734 12.944C122.843 12.3253 124.038 12.016 125.318 12.016ZM153.313 20.752C153.313 21.392 153.27 21.968 153.185 22.48H140.225C140.332 23.76 140.78 24.7627 141.569 25.488C142.358 26.2133 143.329 26.576 144.481 26.576C146.145 26.576 147.329 25.8613 148.033 24.432H152.865C152.353 26.1387 151.372 27.5467 149.921 28.656C148.47 29.744 146.689 30.288 144.577 30.288C142.87 30.288 141.334 29.9147 139.969 29.168C138.625 28.4 137.569 27.3227 136.801 25.936C136.054 24.5493 135.681 22.9493 135.681 21.136C135.681 19.3013 136.054 17.6907 136.801 16.304C137.548 14.9173 138.593 13.8507 139.937 13.104C141.281 12.3573 142.828 11.984 144.577 11.984C146.262 11.984 147.766 12.3467 149.089 13.072C150.433 13.7973 151.468 14.832 152.193 16.176C152.94 17.4987 153.313 19.024 153.313 20.752ZM148.673 19.472C148.652 18.32 148.236 17.4027 147.425 16.72C146.614 16.016 145.622 15.664 144.449 15.664C143.34 15.664 142.401 16.0053 141.633 16.688C140.886 17.3493 140.428 18.2773 140.257 19.472H148.673ZM161.479 25.296L157.735 34.288H154.855L156.935 25.296H161.479ZM236.156 32.24H268.156V0.24H236.156V32.24Z" fill="black"/>
<path d="M185.357 7.664V23.344C185.357 25.52 184.728 27.216 183.469 28.432C182.21 29.6267 180.525 30.224 178.413 30.224C176.28 30.224 174.552 29.6053 173.229 28.368C171.928 27.1307 171.277 25.4027 171.277 23.184H175.757C175.778 24.144 176.002 24.8907 176.429 25.424C176.877 25.9573 177.517 26.224 178.349 26.224C179.16 26.224 179.778 25.968 180.205 25.456C180.632 24.944 180.845 24.24 180.845 23.344V7.664H185.357ZM198.455 30.288C196.748 30.288 195.212 29.9147 193.847 29.168C192.482 28.4 191.404 27.3227 190.615 25.936C189.847 24.5493 189.463 22.9493 189.463 21.136C189.463 19.3227 189.858 17.7227 190.647 16.336C191.458 14.9493 192.556 13.8827 193.943 13.136C195.33 12.368 196.876 11.984 198.583 11.984C200.29 11.984 201.836 12.368 203.223 13.136C204.61 13.8827 205.698 14.9493 206.487 16.336C207.298 17.7227 207.703 19.3227 207.703 21.136C207.703 22.9493 207.287 24.5493 206.455 25.936C205.644 27.3227 204.535 28.4 203.127 29.168C201.74 29.9147 200.183 30.288 198.455 30.288ZM198.455 26.384C199.266 26.384 200.023 26.192 200.727 25.808C201.452 25.4027 202.028 24.8053 202.455 24.016C202.882 23.2267 203.095 22.2667 203.095 21.136C203.095 19.4507 202.647 18.16 201.751 17.264C200.876 16.3467 199.799 15.888 198.519 15.888C197.239 15.888 196.162 16.3467 195.287 17.264C194.434 18.16 194.007 19.4507 194.007 21.136C194.007 22.8213 194.423 24.1227 195.255 25.04C196.108 25.936 197.175 26.384 198.455 26.384ZM227.469 20.752C227.469 21.392 227.427 21.968 227.341 22.48H214.381C214.488 23.76 214.936 24.7627 215.725 25.488C216.515 26.2133 217.485 26.576 218.637 26.576C220.301 26.576 221.485 25.8613 222.189 24.432H227.021C226.509 26.1387 225.528 27.5467 224.077 28.656C222.627 29.744 220.845 30.288 218.733 30.288C217.027 30.288 215.491 29.9147 214.125 29.168C212.781 28.4 211.725 27.3227 210.957 25.936C210.211 24.5493 209.837 22.9493 209.837 21.136C209.837 19.3013 210.211 17.6907 210.957 16.304C211.704 14.9173 212.749 13.8507 214.093 13.104C215.437 12.3573 216.984 11.984 218.733 11.984C220.419 11.984 221.923 12.3467 223.245 13.072C224.589 13.7973 225.624 14.832 226.349 16.176C227.096 17.4987 227.469 19.024 227.469 20.752ZM222.829 19.472C222.808 18.32 222.392 17.4027 221.581 16.72C220.771 16.016 219.779 15.664 218.605 15.664C217.496 15.664 216.557 16.0053 215.789 16.688C215.043 17.3493 214.584 18.2773 214.413 19.472H222.829Z" fill="url(#paint0_linear_0_3734)"/>
<defs>
<linearGradient id="paint0_linear_0_3734" x1="0" y1="18.5" x2="393" y2="18.5" gradientUnits="userSpaceOnUse">
<stop stop-color="#0077B6"/>
<stop offset="1" stop-color="#90E0EF"/>
</linearGradient>
</defs>
</svg>
