<svg width="39" height="48" viewBox="0 0 39 48" fill="none" xmlns="http://www.w3.org/2000/svg">
<path d="M19.3148 36.5557C17.4808 36.5557 15.6468 36.5585 13.8128 36.5548C13.0859 36.553 13.0979 36.5456 13.1506 37.2549C13.1811 37.6693 13.1941 38.0891 13.1626 38.5016C13.0933 39.4098 13.1173 40.3144 13.1599 41.2235C13.2181 42.4683 13.0812 43.7123 13.1478 44.9627C13.2089 46.1271 12.5171 47.0963 11.5682 47.4487C9.95336 48.048 8.29508 46.9307 8.26086 45.1809C8.22756 43.5171 8.24884 41.8524 8.24791 40.1876C8.24699 39.1555 8.23681 38.1224 8.25531 37.0903C8.26271 36.6926 8.12398 36.5354 7.71889 36.552C7.18062 36.5752 6.6405 36.5631 6.1013 36.5474C5.42893 36.528 5.10615 36.245 5.1191 35.5911C5.12927 35.0843 4.92488 34.9779 4.46429 34.9659C2.86243 34.9243 2.02913 33.9828 1.93942 32.3856C1.84508 30.707 2.02451 29.0321 1.9089 27.3535C1.84693 26.4508 1.92092 25.537 1.96161 24.6298C1.98104 24.2025 1.86265 23.9361 1.42149 23.8039C0.950739 23.6624 0.627962 23.3035 0.490157 22.8429C0.242294 22.018 0.221022 21.1643 0.428191 20.332C0.641834 19.4756 1.23005 19.0483 2.11977 19.0427C3.61435 19.0325 5.10985 19.0427 6.60443 19.0464C7.26478 19.0483 7.25368 19.027 7.27218 18.3768C7.29808 17.4695 7.40074 16.565 7.43311 15.6568C7.49877 13.796 7.6782 11.9417 7.72814 10.079C7.76328 8.77223 7.81415 7.45801 7.98895 6.16414C8.39681 3.13987 10.5536 0.85918 13.3643 0.269124C14.6868 -0.00833216 16.0639 0.0795289 17.4189 0.120222C18.0968 0.140569 18.7729 0.147968 19.4508 0.122072C20.0039 0.100801 20.5597 0.0961763 21.1137 0.119298C21.8073 0.147968 22.4982 0.145193 23.1919 0.116523C25.9442 0.00369093 28.212 0.921145 29.7482 3.30079C30.3401 4.21825 30.7045 5.23189 30.7683 6.33431C30.9274 9.08575 31.0652 11.8381 31.2428 14.5877C31.3233 15.8316 31.376 17.0756 31.4287 18.3204C31.462 19.1019 31.4759 19.1176 32.25 19.1213C33.6521 19.1287 35.0551 19.1213 36.4572 19.1306C37.7492 19.1389 38.3559 19.7493 38.3615 21.0293C38.3633 21.3992 38.355 21.7692 38.3698 22.1391C38.404 22.9891 38.0017 23.5976 37.1795 23.8298C36.8826 23.9139 36.7984 24.0175 36.828 24.3329C36.8891 24.9923 36.779 25.6591 36.804 26.3158C36.8734 28.1775 36.7291 30.0402 36.8447 31.901C36.8752 32.3948 36.853 32.8924 36.6754 33.3604C36.2722 34.423 35.4528 34.9779 34.2791 34.9724C33.8833 34.9705 33.6308 34.9585 33.6678 35.5171C33.7168 36.2376 33.3432 36.5456 32.6134 36.5539C32.1048 36.5594 31.5942 36.5779 31.0883 36.5419C30.6268 36.5095 30.4779 36.6575 30.4816 37.1356C30.5048 39.7243 30.4946 42.3139 30.4918 44.9025C30.4909 45.6128 30.3531 46.2806 29.8509 46.8272C29.1119 47.6318 28.1963 47.7261 27.2187 47.4311C26.2134 47.1277 25.7204 46.3684 25.652 45.3613C25.5873 44.3957 25.5179 43.4283 25.6141 42.4545C25.6834 41.7516 25.6011 41.0394 25.5808 40.3319C25.5549 39.4246 25.6113 38.5155 25.6289 37.6073C25.6316 37.4381 25.6159 37.2688 25.6104 37.0996C25.5983 36.7046 25.4217 36.5409 25.0018 36.5446C23.1068 36.5631 21.2108 36.553 19.3148 36.553C19.3148 36.5576 19.3148 36.5567 19.3148 36.5557ZM19.2778 1.8534C19.2778 1.85062 19.2778 1.84785 19.2778 1.84415C17.7981 1.84415 16.3192 1.8386 14.8394 1.84785C14.487 1.8497 14.1263 1.8608 13.7832 1.93293C11.3175 2.45363 9.58156 4.70934 9.60006 7.3239C9.61301 9.11165 9.41971 10.8911 9.34942 12.676C9.23937 15.5061 8.98133 18.3306 8.87404 21.1597C8.80838 22.8975 8.61231 24.6279 8.59751 26.3685C8.59381 26.7745 8.66595 26.9012 9.08029 26.9225C11.0808 27.0261 13.0822 26.8735 15.0827 26.9632C15.7883 26.9946 16.5005 26.8901 17.2061 26.9252C19.0688 27.0187 20.9315 26.9474 22.7923 26.9437C24.5607 26.94 26.3318 27.0344 28.101 26.9215C28.6513 26.8864 29.2081 26.9465 29.7621 26.9761C30.058 26.9918 30.1968 26.8818 30.169 26.5766C30.1367 26.2242 30.108 25.8709 30.0858 25.5176C29.9193 22.9216 29.8287 20.3209 29.6557 17.7248C29.4356 14.4379 29.3274 11.1435 29.1434 7.85385C29.0906 6.90495 29.1073 5.9283 28.6911 5.04137C27.7237 2.98079 26.1144 1.87097 23.8087 1.85432C22.2984 1.84415 20.7881 1.8534 19.2778 1.8534ZM19.3648 34.8457C19.3648 34.8438 19.3648 34.8411 19.3648 34.8392C19.6265 34.8392 19.8882 34.8392 20.1509 34.8392C23.879 34.8392 27.6072 34.8337 31.3353 34.8466C31.7653 34.8485 31.942 34.731 31.9309 34.2741C31.9041 33.2429 31.9355 32.2099 31.9179 31.1777C31.8911 29.6036 30.9561 28.6871 29.394 28.6834C27.9457 28.6797 26.4982 28.6815 25.0499 28.6815C19.7662 28.6797 14.4824 28.6723 9.19775 28.6778C7.77623 28.6788 6.82177 29.6434 6.8116 31.0593C6.8042 32.1377 6.82455 33.2161 6.80235 34.2945C6.7931 34.7097 6.91426 34.8568 7.34894 34.8559C11.3536 34.8392 15.3592 34.8457 19.3648 34.8457ZM3.66614 28.3088C3.66614 29.6008 3.66244 30.8929 3.66799 32.1858C3.67169 33.0006 3.89828 33.2244 4.70383 33.2651C4.97204 33.279 5.11262 33.1995 5.10338 32.909C5.0895 32.4633 5.10523 32.0166 5.08025 31.5717C5.00072 30.1243 5.40396 28.8684 6.51842 27.8917C6.65067 27.7761 6.75888 27.6661 6.76905 27.4755C6.8264 26.4009 6.88836 25.3271 6.95495 24.2533C6.97068 23.9925 6.86432 23.8732 6.6072 23.9028C5.79332 23.9972 4.97944 23.9592 4.16649 23.8945C3.79099 23.864 3.65227 23.9962 3.65874 24.3865C3.67816 25.6933 3.66614 27.0011 3.66614 28.3088ZM35.0773 28.4429C35.0782 28.4429 35.0791 28.4429 35.0801 28.4429C35.0801 27.1176 35.081 25.7914 35.0791 24.4661C35.0791 24.2339 35.1032 23.9842 34.7619 23.9583C33.9471 23.8964 33.1323 23.8769 32.3147 23.913C31.9105 23.9315 31.7404 24.0906 31.7792 24.516C31.8606 25.4048 31.9207 26.2963 31.9596 27.1879C31.9744 27.5227 32.0779 27.7724 32.3332 27.9888C33.2285 28.7472 33.5716 29.7627 33.6326 30.8956C33.6669 31.5255 33.6891 32.1571 33.7002 32.7879C33.7057 33.0949 33.8426 33.2318 34.1404 33.2623C34.7258 33.3234 35.068 33.0561 35.0736 32.466C35.0856 31.125 35.0773 29.784 35.0773 28.4429ZM27.3371 40.9997C27.3389 40.9997 27.3417 40.9997 27.3436 40.9997C27.3436 42.3398 27.338 43.6799 27.3463 45.02C27.35 45.5694 27.6053 45.8514 28.0566 45.8524C28.5098 45.8533 28.7771 45.5629 28.7725 45.0274C28.7669 44.3661 28.6828 43.7021 28.7235 43.0445C28.8381 41.1994 28.668 39.3534 28.7669 37.5083C28.8169 36.5798 28.7022 36.5308 27.7718 36.5474C27.4157 36.5539 27.3297 36.7037 27.3325 37.0256C27.3436 38.35 27.3371 39.6743 27.3371 40.9997ZM11.4008 41.0589C11.3989 41.0589 11.3971 41.0589 11.3952 41.0589C11.3952 39.7049 11.3961 38.3509 11.3943 36.9969C11.3943 36.786 11.3693 36.5576 11.0937 36.5742C10.7256 36.5974 10.3289 36.4124 9.99498 36.6991C9.95983 36.7287 9.95983 36.8175 9.96723 36.8757C10.1374 38.1049 9.87475 39.3349 9.97001 40.5613C10.019 41.192 10.0653 41.8237 10.0033 42.4498C9.90897 43.3904 9.97833 44.3245 10.0384 45.2595C10.068 45.7136 10.3437 45.9171 10.7913 45.857C11.2435 45.796 11.4017 45.4963 11.4008 45.0755C11.3998 43.7363 11.4008 42.398 11.4008 41.0589ZM34.158 22.202C34.158 22.2029 34.158 22.2029 34.158 22.2039C34.281 22.2039 34.404 22.2039 34.527 22.2039C34.958 22.2039 35.389 22.2066 35.8199 22.2029C36.6588 22.1946 36.6421 22.1928 36.6551 21.3641C36.6606 20.9849 36.5589 20.7787 36.1483 20.787C35.8875 20.7925 35.6266 20.7592 35.3658 20.7509C34.4123 20.7176 33.4606 20.8721 32.5071 20.7953C31.5378 20.7167 31.5147 20.7343 31.6192 21.7081C31.6211 21.7239 31.6229 21.7387 31.6238 21.7544C31.6414 22.0725 31.7977 22.214 32.1279 22.2076C32.803 22.1918 33.481 22.202 34.158 22.202ZM4.54106 22.2011C4.54106 22.202 4.54106 22.2029 4.54106 22.2029C4.88048 22.2029 5.21898 22.2048 5.55841 22.2029C5.91263 22.2011 6.26778 22.1863 6.622 22.1946C6.93461 22.202 7.05391 22.0642 7.07149 21.7544C7.12698 20.7824 7.13438 20.7814 6.14015 20.7509C6.03194 20.7472 5.92465 20.7472 5.81645 20.7491C4.89251 20.7666 3.96487 20.8443 3.04555 20.7879C1.97641 20.7223 2.09202 20.6464 2.07815 21.7507C2.07352 22.0966 2.22428 22.2113 2.5526 22.2048C3.21573 22.1918 3.87886 22.2011 4.54106 22.2011Z" fill="black"/>
<path d="M15.135 3.23831C16.9339 3.39091 18.7346 3.21889 20.5362 3.27438C21.6553 3.3086 22.7809 3.26513 23.9046 3.29195C25.9189 3.34004 27.3173 4.54975 27.5994 6.53264C27.6808 7.1042 27.4135 7.55275 26.9418 7.63414C26.4535 7.7183 26.0484 7.41865 25.9097 6.86929C25.5444 5.42559 25.0163 5.00756 23.5448 5.00478C20.7554 5.00016 17.9669 4.99738 15.1776 4.99553C13.7181 4.99461 13.1068 5.48663 12.7951 6.90258C12.6647 7.49541 12.3484 7.7405 11.8351 7.64709C11.2395 7.53795 11.0194 7.2235 11.0971 6.58998C11.3403 4.59415 12.9829 3.23091 15.135 3.23831Z" fill="black"/>
</svg>
