<svg width="388" height="388" viewBox="0 0 388 388" fill="none" xmlns="http://www.w3.org/2000/svg">
<path d="M110.143 55.8015C109.91 56.6456 109.409 57.3912 108.716 57.9256C108.022 58.4601 107.173 58.7545 106.298 58.7644C99.7372 58.7644 92.4498 69.8118 92.4498 85.7409C92.4498 88.464 92.6897 91.1024 93.0847 93.5856C93.1758 94.106 93.1631 94.6392 93.0473 95.1546C92.9315 95.67 92.7149 96.1575 92.4101 96.5889C92.1052 97.0203 91.718 97.3871 91.2708 97.6684C90.8237 97.9496 90.3253 98.1396 89.8044 98.2275H89.1695C88.2107 98.2341 87.2809 97.8991 86.5466 97.2825C85.8124 96.6659 85.3217 95.808 85.1625 94.8625C83.9632 87.4552 84.2101 79.025 86.2912 71.4132C89.5645 59.491 96.7743 51.2372 105.494 50.8421C107.681 50.1084 110.926 52.6551 110.143 55.8015ZM113.508 118.135C112.672 118.139 111.857 117.881 111.175 117.397C110.494 116.914 109.981 116.229 109.709 115.439C109.436 114.65 109.418 113.794 109.657 112.994C109.895 112.193 110.378 111.487 111.039 110.975C114.213 108.506 116.922 103.779 118.495 97.9806C118.633 97.4734 118.869 96.9982 119.19 96.5823C119.511 96.1663 119.911 95.8177 120.367 95.5563C120.823 95.2949 121.326 95.1259 121.847 95.0589C122.369 94.9919 122.898 95.0282 123.405 95.1658C123.912 95.3034 124.388 95.5395 124.803 95.8607C125.219 96.1819 125.568 96.5819 125.829 97.0378C126.091 97.4938 126.26 97.9967 126.327 98.518C126.394 99.0392 126.358 99.5686 126.22 100.076C124.174 107.617 120.534 113.726 115.963 117.289C115.259 117.838 114.4 118.136 113.508 118.135ZM198.585 44.9163C198.585 45.0785 198.585 45.2337 198.515 45.396C198.431 46.3732 197.978 47.2818 197.248 47.937C196.518 48.5921 195.566 48.9448 194.586 48.9233C188.102 48.9233 180.822 60.0483 180.822 75.9775C180.822 78.6159 180.977 81.2543 181.457 83.8221C181.535 84.3961 181.49 84.9801 181.326 85.5354C181.161 86.0908 180.88 86.6049 180.502 87.0437C180.124 87.4825 179.657 87.836 179.132 88.0808C178.607 88.3257 178.036 88.4563 177.457 88.464C176.512 88.4534 175.601 88.1104 174.884 87.495C174.167 86.8797 173.689 86.0314 173.535 85.099C173.054 82.0823 172.813 79.0322 172.815 75.9775C172.815 70.4538 173.535 65.3251 174.896 60.7679C178.261 49.2407 185.302 41.3961 193.788 40.994C195.58 40.4014 198.585 42.0098 198.585 44.9163ZM198.677 106.763C198.355 106.349 198.117 105.874 197.978 105.367C197.838 104.86 197.801 104.331 197.866 103.81C197.932 103.288 198.099 102.785 198.359 102.328C198.62 101.871 198.967 101.47 199.383 101.148C202.543 98.6931 205.259 93.9595 206.825 88.1607C207.103 87.1363 207.776 86.2643 208.697 85.7364C209.618 85.2085 210.711 85.068 211.735 85.3459C212.759 85.6237 213.632 86.2971 214.159 87.2179C214.687 88.1387 214.828 89.2315 214.55 90.2559C212.511 97.8042 208.864 103.921 204.286 107.469C203.448 108.118 202.387 108.409 201.335 108.277C200.284 108.144 199.328 107.6 198.677 106.763ZM283.593 39.8723C283.234 40.3885 282.757 40.8106 282.2 41.1029C281.644 41.3951 281.025 41.549 280.397 41.5513C273.836 41.5513 266.549 52.6833 266.549 68.6125C266.549 71.2509 266.789 73.8964 267.184 76.4572C267.279 77.0269 267.249 77.6104 267.096 78.1674C266.944 78.7244 266.672 79.2416 266.299 79.6831C265.927 80.1246 265.463 80.4799 264.94 80.7244C264.416 80.9689 263.846 81.0967 263.269 81.0991C262.314 81.0904 261.392 80.7499 260.661 80.1359C259.93 79.522 259.435 78.6728 259.262 77.734C258.013 70.0164 258.359 61.2969 260.546 53.6428C263.911 42.038 271.029 34.0311 279.593 33.629C280.121 33.5173 280.666 33.5173 281.194 33.629C283.945 34.2569 285.413 37.4596 283.593 39.8723ZM287.6 100.951C283.804 100.951 282.154 96.1111 285.145 93.7831C288.305 91.3281 291.028 86.5945 292.601 80.7957C292.88 79.7713 293.554 78.8997 294.476 78.3725C295.397 77.8453 296.49 77.7057 297.515 77.9845C298.539 78.2632 299.411 78.9375 299.938 79.859C300.465 80.7805 300.605 81.8736 300.326 82.898C298.273 90.4463 294.626 96.5626 290.055 100.111C289.353 100.657 288.489 100.953 287.6 100.951Z" fill="#0077B6"/>
<path d="M83.5611 289.617L81.9668 354.449L73.3955 347.091L32.0982 311.465L24.7332 305.067L83.5611 289.617Z" fill="#45B22D"/>
<path d="M24.6909 305.031L93.0495 291.198L54.7292 86.8132L24.6909 305.031Z" fill="#0077B6"/>
<path d="M32.7966 303.381L101.296 291.198L62.2141 86.1219L32.7966 303.381Z" fill="#195270"/>
<path d="M355.076 271.6L336.996 98.9541L333.955 70.3832C333.32 64.7748 328.989 60.6903 324.107 61.17L74.6865 84.8732L63.3216 85.9879L54.7574 86.785L57.8755 117.846V118.086L81.9738 354.463L89.3317 352.699L89.494 352.621L348.607 289.624C353.242 288.503 356.367 283.459 355.803 278.097L355.076 271.6ZM296.326 74.6159C301.123 74.6159 305.053 78.5383 305.053 83.3353C305.047 85.648 304.126 87.8644 302.491 89.4997C300.855 91.135 298.639 92.0562 296.326 92.0618C294.014 92.0562 291.797 91.135 290.162 89.4997C288.526 87.8644 287.605 85.648 287.6 83.3353C287.6 78.5383 291.522 74.6159 296.326 74.6159ZM210.275 83.3353C215.079 83.3353 219.001 87.2577 219.001 92.0618C218.996 94.3745 218.075 96.5909 216.439 98.2262C214.804 99.8615 212.588 100.783 210.275 100.788C205.372 100.788 201.548 96.612 201.548 92.0618C201.548 87.0249 205.711 83.3353 210.275 83.3353ZM121.832 92.0618C126.636 92.0618 130.558 95.9841 130.558 100.788C130.558 105.592 126.636 109.515 121.832 109.515C119.519 109.509 117.303 108.588 115.668 106.953C114.032 105.317 113.111 103.101 113.106 100.788C113.106 95.9912 117.028 92.0618 121.832 92.0618Z" fill="#0077B6"/>
<path d="M362.441 269.286L344.354 98.0723L341.391 69.6495C340.826 64.1258 336.509 59.9636 331.627 60.4433L324.1 61.1629L74.6794 84.8662V84.9367L63.3146 85.9808C62.8348 86.0584 62.4327 86.5452 62.3551 87.1025V87.4199L66.7572 130.968L71.1592 174.191V174.353L89.3247 352.692L89.4869 352.614L356.043 288.982C360.685 287.854 363.803 282.732 363.239 277.286L362.441 269.286ZM296.326 74.6159C301.123 74.6159 305.053 78.5383 305.053 83.3353C305.047 85.648 304.126 87.8644 302.491 89.4997C300.855 91.135 298.639 92.0562 296.326 92.0618C294.014 92.0562 291.797 91.135 290.162 89.4997C288.526 87.8644 287.605 85.648 287.6 83.3353C287.6 78.5383 291.522 74.6159 296.326 74.6159ZM210.275 83.3353C215.079 83.3353 219.001 87.2577 219.001 92.0618C218.996 94.3745 218.075 96.5909 216.439 98.2262C214.804 99.8615 212.588 100.783 210.275 100.788C205.372 100.788 201.548 96.612 201.548 92.0618C201.548 87.0249 205.711 83.3353 210.275 83.3353ZM121.832 92.0618C126.636 92.0618 130.558 95.9841 130.558 100.788C130.558 105.592 126.636 109.515 121.832 109.515C119.519 109.509 117.303 108.588 115.668 106.953C114.032 105.317 113.111 103.101 113.106 100.788C113.106 95.9912 117.028 92.0618 121.832 92.0618Z" fill="#DA4D0D"/>
<path d="M362.441 269.286C359.965 270.006 357.56 270.803 355.076 271.607C298.922 289.222 223.53 319.437 158.805 289.138C126.142 273.928 100.132 240.955 100.936 204.927C101.416 179.637 114.7 155.778 133.352 138.728C141.295 131.459 150.082 125.171 159.524 119.998C172.096 112.802 185.626 107.356 199.39 102.947L202.353 95.5891C200.377 91.9066 201.965 85.9737 207.079 83.9773L212.038 71.8153L74.6794 84.8662V84.9367L63.3146 85.9808C62.8348 86.0584 62.4327 86.5452 62.3551 87.1025V87.4199L66.7572 130.968L71.1592 174.191V174.353L89.3247 352.692L89.4869 352.614L356.043 288.982C360.685 287.854 363.803 282.732 363.239 277.286L362.441 269.286ZM121.832 92.0618C126.636 92.0618 130.558 95.9841 130.558 100.788C130.558 105.592 126.636 109.515 121.832 109.515C119.519 109.509 117.303 108.588 115.668 106.953C114.032 105.317 113.111 103.101 113.106 100.788C113.106 95.9912 117.028 92.0618 121.832 92.0618Z" fill="#FF5000"/>
<path d="M337.631 267.043C338.11 271.043 335.867 274.732 332.424 275.529L121.91 323.959C118.227 324.756 114.7 321.878 114.143 317.631L93.9665 151.941C93.4868 147.694 96.1323 143.856 99.8148 143.377L130.474 139.609L312.255 117.197C315.783 116.795 318.901 119.596 319.458 123.603L335.387 249.195L337.631 267.043Z" fill="#F2F8FD"/>
<path d="M343.556 90.4604L341.391 69.6495C340.826 64.1258 336.509 59.9636 331.627 60.4433L324.1 61.1629L74.6794 84.8662V84.9367L63.3146 85.9808C62.8348 86.0584 62.4327 86.5452 62.3551 87.1025V87.4199L66.7572 130.968L70.6795 130.488L159.524 119.998L336.989 98.9471L344.354 98.0652L343.556 90.4604ZM210.275 83.3353C215.079 83.3353 219.001 87.2577 219.001 92.0618C218.996 94.3745 218.075 96.5909 216.439 98.2262C214.804 99.8615 212.588 100.783 210.275 100.788C205.372 100.788 201.548 96.612 201.548 92.0618C201.548 87.0249 205.711 83.3353 210.275 83.3353ZM121.832 92.0618C126.636 92.0618 130.558 95.9841 130.558 100.788C130.558 105.592 126.636 109.515 121.832 109.515C119.519 109.509 117.303 108.588 115.668 106.953C114.032 105.317 113.111 103.101 113.106 100.788C113.106 95.9912 117.028 92.0618 121.832 92.0618ZM287.614 83.3353C287.614 78.5383 291.529 74.6159 296.333 74.6159C301.13 74.6159 305.06 78.5383 305.06 83.3353C305.06 87.1801 302.577 90.3828 299.134 91.5045C294.513 93.6068 287.614 89.9596 287.614 83.3353Z" fill="#45B22D"/>
<path d="M337.631 267.043C338.11 271.043 335.867 274.732 332.424 275.529L121.91 323.959C118.227 324.756 114.7 321.878 114.143 317.631L93.9665 151.941C93.4868 147.694 96.1323 143.856 99.8148 143.377L130.474 139.609C122.545 162.262 126.947 188.758 139.518 209.492C172.547 263.664 265.392 293.356 325.941 255.276C329.144 253.272 332.184 251.114 335.394 249.195L337.631 267.043Z" fill="#D0DCEE"/>
<path d="M302.167 68.6125C302.18 73.4222 301.563 78.2129 300.333 82.8627C300.17 83.4756 299.835 84.029 299.367 84.457C299.031 84.8981 298.595 85.252 298.094 85.4889C297.593 85.7259 297.042 85.8389 296.488 85.8185C296.086 85.8185 295.769 85.8186 295.444 85.741C294.411 85.4533 293.531 84.7725 292.993 83.8443C292.455 82.9161 292.302 81.8143 292.566 80.7745C293.635 76.809 294.173 72.7195 294.168 68.6125C294.168 52.6833 286.88 41.5513 280.397 41.5513C279.696 41.5642 279.004 41.385 278.397 41.0331C277.79 40.6812 277.291 40.17 276.954 39.5548C275.353 37.3185 277.145 33.5514 280.397 33.5514C280.637 33.5514 280.961 33.5514 281.194 33.629C292.961 34.271 302.167 49.3183 302.167 68.6125ZM215.001 88.2241C214.839 88.9437 214.677 89.5786 214.522 90.2206C214.248 91.2449 213.583 92.1209 212.67 92.6604C211.757 93.1999 210.669 93.3599 209.64 93.1059C208.612 92.8145 207.741 92.1295 207.215 91.1997C206.69 90.2699 206.552 89.1702 206.832 88.1395C207.88 84.1715 208.392 80.0812 208.356 75.9775C208.356 60.0483 201.153 48.9162 194.586 48.9162C194.059 48.9209 193.537 48.8207 193.049 48.6213C192.562 48.422 192.119 48.1275 191.747 47.7552C191.374 47.3828 191.08 46.94 190.88 46.4526C190.681 45.9651 190.581 45.4429 190.586 44.9163V44.5988C190.654 43.5896 191.107 42.6452 191.851 41.9601C192.595 41.275 193.574 40.9014 194.586 40.9164C194.825 40.9164 195.15 40.9164 195.39 40.994C212.49 41.9181 219.629 69.706 215.001 88.2241ZM128.068 85.741C128.068 90.6227 127.504 95.3986 126.234 100.062C125.959 101.092 125.286 101.97 124.363 102.504C123.441 103.038 122.343 103.183 121.313 102.908C120.284 102.633 119.405 101.96 118.871 101.037C118.337 100.115 118.192 99.0176 118.467 97.9876C119.541 93.9944 120.08 89.8761 120.068 85.741C120.068 69.8118 112.781 58.7644 106.298 58.7644C105.291 58.7626 104.322 58.3834 103.581 57.7016C102.841 57.0198 102.383 56.085 102.298 55.0819V54.7644C102.294 54.1701 102.423 53.5823 102.675 53.0443C102.928 52.5064 103.298 52.0318 103.758 51.6556C104.218 51.2794 104.757 51.011 105.334 50.8702C105.912 50.7295 106.513 50.7198 107.095 50.8421C118.862 51.477 128.068 66.5314 128.068 85.741Z" fill="#0077B6"/>
<path d="M128.068 85.741C128.068 89.8255 127.666 93.7479 126.869 97.4303C126.109 97.3257 125.391 97.0214 124.788 96.5485C121.585 94.0512 122.777 89.3529 123.349 86.0584C124.096 80.9509 123.574 75.738 121.828 70.8803C120.082 66.0227 117.166 61.67 113.338 58.2071C110.136 55.2653 106.291 53.417 102.298 55.0819C97.776 56.8032 95.3845 61.4521 93.8114 66.0517C93.247 67.5684 92.6121 69.2474 91.4128 70.3691C90.1289 71.653 88.0478 71.8929 86.2841 71.4132C89.5645 59.491 96.7743 51.2372 105.494 50.8421C106.022 50.7314 106.567 50.7314 107.095 50.8421C118.862 51.477 128.068 66.5314 128.068 85.741ZM215.001 88.2241C213.472 87.7746 212.161 86.7777 211.319 85.4235C208.511 80.7393 212.871 72.8382 209.478 60.8455C205.704 46.7928 191.862 36.8741 184.822 50.5176C182.762 54.3271 180.328 63.3569 176.335 61.9671C175.74 61.7305 175.236 61.3104 174.896 60.7679C178.261 49.2407 185.302 41.3961 193.788 40.994C194.316 40.8826 194.862 40.8826 195.39 40.994C212.49 41.9181 219.629 69.706 215.001 88.2241ZM302.167 68.6125C302.18 73.4222 301.563 78.2129 300.333 82.8627C300.17 83.4756 299.835 84.029 299.367 84.457C298.598 84.457 296.086 82.4183 296.086 78.2984C296.164 76.1327 296.806 73.974 297.286 71.8082C301.074 56.0201 294.584 43.9569 284.559 40.1121C284.242 40.0345 283.924 39.8723 283.6 39.8723C281.461 39.1294 279.154 39.0192 276.954 39.5548C270.888 41.3749 270.45 46.8916 266.627 50.9197C265.11 52.5987 263.029 53.805 260.863 53.6428H260.546C263.911 42.038 271.029 34.0311 279.593 33.629C280.121 33.5173 280.666 33.5173 281.194 33.629C292.961 34.271 302.167 49.3183 302.167 68.6125Z" fill="#195270"/>
<path d="M344.354 98.0652L336.989 98.9471L159.524 119.998L70.6795 130.488L66.7572 130.968L62.3551 87.4199V87.1025C62.4257 86.5381 62.8348 86.0584 63.3146 85.9737L74.6794 84.9367V84.8662L99.3351 82.5382C93.4304 87.4623 89.9807 95.7937 92.2876 103.109C94.2135 109.035 99.7372 113.352 105.656 115.278C111.659 117.275 118.065 117.197 124.308 116.957C195.362 114.382 265.639 88.6263 336.671 89.9807C338.907 90.0654 341.228 90.143 343.549 90.4604L344.354 98.0652Z" fill="#45B22D"/>
<path d="M73.3955 347.084L32.0982 311.479C32.4932 311.077 32.8954 310.837 33.2975 310.513C42.1015 304.516 54.6727 304.114 63.3146 310.273C72.3303 316.664 77.8328 329.849 73.4025 347.098L73.3955 347.084Z" fill="#45B22D"/>
<path d="M213.329 230.888C224.652 233.435 221.47 216.85 202.966 210.606C195.489 208.074 195.27 215.523 198.825 219.932C202.868 224.962 206.726 229.4 213.329 230.888ZM227.051 215.841C232.694 217.111 231.135 208.836 221.873 205.703C218.134 204.448 218.028 208.165 219.798 210.367C221.823 212.878 223.749 215.093 227.051 215.841Z" fill="#D0DCEE"/>
<path d="M186.945 200.631C187.228 203.524 185.323 206.134 182.501 206.628L129.028 215.869C128.306 216.004 127.565 215.988 126.85 215.823C126.136 215.658 125.462 215.347 124.873 214.91C124.284 214.473 123.791 213.919 123.426 213.283C123.06 212.647 122.83 211.942 122.749 211.213L117.952 171.708C117.599 168.886 119.575 166.276 122.396 165.782L132.978 163.948L175.87 156.47C178.903 155.976 181.796 158.092 182.148 161.196L186.945 200.631ZM295.021 181.796C295.374 184.688 293.399 187.298 290.577 187.792L237.103 197.104C236.378 197.224 235.637 197.195 234.923 197.019C234.21 196.844 233.54 196.526 232.953 196.084C232.366 195.642 231.875 195.086 231.509 194.449C231.143 193.812 230.91 193.107 230.825 192.377L226.098 152.872C225.745 150.05 227.65 147.44 230.543 146.946L244.087 144.548L283.945 137.634C287.049 137.14 289.871 139.257 290.224 142.361L294.316 176.223L295.021 181.796ZM201.478 289.166C201.661 290.547 201.3 291.945 200.47 293.064C199.641 294.184 198.408 294.936 197.033 295.162L143.631 304.404C142.909 304.543 142.166 304.53 141.45 304.367C140.733 304.203 140.058 303.893 139.468 303.455C138.878 303.018 138.385 302.462 138.021 301.824C137.656 301.186 137.429 300.479 137.352 299.748L132.555 260.242C132.202 257.42 134.177 254.81 136.999 254.316L150.332 251.988L190.473 245.004C193.506 244.511 196.399 246.627 196.751 249.731L200.913 284.369L201.478 289.166Z" fill="#0077B6"/>
<path d="M314.985 263.699C315.338 266.521 313.363 269.131 310.541 269.625L257.068 278.937C256.343 279.056 255.601 279.027 254.888 278.852C254.174 278.677 253.504 278.359 252.917 277.917C252.33 277.475 251.839 276.919 251.473 276.282C251.107 275.644 250.875 274.94 250.789 274.21L245.992 234.775C245.71 231.883 247.615 229.273 250.436 228.779L265.604 226.098L303.91 219.467C306.943 218.973 309.836 221.089 310.188 224.193L314.068 256.151L314.985 263.699Z" fill="#45B22D"/>
<path d="M186.945 200.631C187.228 203.524 185.323 206.134 182.501 206.628L129.028 215.869C128.306 216.004 127.565 215.988 126.85 215.823C126.136 215.658 125.462 215.347 124.873 214.91C124.284 214.473 123.791 213.919 123.426 213.283C123.06 212.647 122.83 211.942 122.749 211.213L117.952 171.708C117.599 168.886 119.575 166.276 122.396 165.782L132.978 163.948C128.428 179.771 141.93 193.034 158.516 194.705C167.757 195.623 176.999 193.295 185.605 189.908L186.945 200.631ZM295.021 181.796C295.374 184.688 293.399 187.298 290.577 187.792L237.103 197.104C236.378 197.224 235.637 197.195 234.923 197.019C234.21 196.844 233.54 196.526 232.953 196.084C232.366 195.642 231.875 195.086 231.509 194.449C231.143 193.812 230.91 193.107 230.825 192.377L226.098 152.872C225.745 150.05 227.65 147.44 230.543 146.946L244.087 144.548C241.428 167.475 263.819 184.822 288.601 177.704C290.506 177.14 292.411 176.505 294.316 176.223L295.021 181.796ZM201.478 289.166C201.661 290.547 201.3 291.945 200.47 293.064C199.641 294.184 198.408 294.936 197.033 295.162L143.631 304.404C142.909 304.543 142.166 304.53 141.45 304.367C140.733 304.203 140.058 303.893 139.468 303.455C138.878 303.018 138.385 302.462 138.021 301.824C137.656 301.186 137.429 300.479 137.352 299.748L132.555 260.242C132.202 257.42 134.177 254.81 136.999 254.316L150.332 251.988C148.428 258.831 149.133 266.45 152.59 272.588C157.528 281.335 167.687 286.838 177.633 286.273C182.289 285.991 186.804 284.51 191.39 283.804C194.564 283.381 197.951 283.381 200.913 284.369L201.478 289.166Z" fill="#0077B6"/>
<path d="M314.985 263.699C315.338 266.521 313.363 269.131 310.541 269.625L257.068 278.937C256.343 279.056 255.601 279.027 254.888 278.852C254.174 278.677 253.504 278.359 252.917 277.917C252.33 277.475 251.839 276.919 251.473 276.282C251.107 275.644 250.875 274.94 250.789 274.21L245.992 234.775C245.71 231.883 247.615 229.273 250.436 228.779L265.604 226.098C265.815 235.41 270.753 244.652 278.796 249.66C289.025 256.009 301.935 255.092 314.068 256.151L314.985 263.699Z" fill="#45B22D"/>
<path d="M270.027 268.2L256.475 258.323C255.78 257.749 255.331 256.931 255.219 256.036C255.106 255.142 255.339 254.238 255.87 253.509C256.401 252.781 257.189 252.282 258.075 252.115C258.961 251.947 259.877 252.124 260.637 252.609L271.254 260.355L292.157 229.858C292.699 229.123 293.506 228.627 294.406 228.474C295.307 228.321 296.232 228.524 296.986 229.04C297.741 229.556 298.265 230.344 298.45 231.238C298.635 232.133 298.465 233.065 297.977 233.837L275.014 267.339C274.748 267.729 274.406 268.061 274.009 268.316C273.612 268.571 273.168 268.744 272.703 268.824C272.238 268.904 271.761 268.89 271.301 268.783C270.842 268.676 270.408 268.477 270.027 268.2Z" fill="#F2F8FD"/>
</svg>
