<svg width="388" height="388" viewBox="0 0 388 388" fill="none" xmlns="http://www.w3.org/2000/svg">
<g clip-path="url(#clip0_1_252)">
<path fill-rule="evenodd" clip-rule="evenodd" d="M14.7463 177.659C28.1543 176.823 39.5397 177.081 53.0591 177.206C73.088 177.381 91.8932 177.438 111.418 177.508C136.997 177.593 163.698 178.186 189.562 178.287C217.724 178.393 245.456 178.973 273.721 179.003C273.724 178.629 273.73 178.252 273.733 177.875C281.048 177.768 288.155 177.957 295.438 177.9C295.433 178.17 295.42 178.441 295.417 178.707C299.051 178.568 302.632 178.497 306.014 178.879C308.476 179.155 309.495 179.708 310.443 181.248C324.825 167.486 340.369 152.395 355.852 137.944C355.723 131.618 355.617 125.319 355.553 119.063C362.572 118.829 369.41 118.884 376.384 118.719C378.039 117.25 379.802 116.039 381.816 115.54C382.542 115.36 383.721 114.677 384.485 115.676C385.461 116.964 382.856 120.191 381.501 121.685C380.102 123.223 378.691 124.75 377.266 126.264C377.266 184.684 375.164 240.718 373.308 297.02C369.636 296.557 365.224 297.277 361.493 296.92C360.13 247.755 357.315 196.938 356.08 147.919C353.251 150.783 350.416 153.678 347.581 156.635C341.486 162.991 335.012 169.765 327.835 176.244C324.802 178.982 321.25 182.175 317.717 185.635C314.914 188.374 310.282 193.733 307.09 194.465C304.714 195.006 300.993 194.516 297.451 194.511C296.64 194.506 295.828 194.484 295.017 194.445C293.552 247.248 290.389 298.112 287.416 349.195C283.758 348.69 279.331 349.311 275.609 348.897C275.348 297.624 273.425 244.45 273.611 193.682C271.58 193.651 269.619 193.614 267.778 193.527C253.735 192.885 240.824 192.633 228.463 192.592C202.801 192.503 176.37 192.411 151.368 192.134C115.081 191.731 76.621 191.733 37.805 190.087C36.4705 242.261 32.683 297.058 30.7377 349.89C27.0002 350.181 22.5973 349.422 18.9249 349.812C17.529 296.759 15.9262 243.925 16.287 188.994C15.6693 188.958 15.0517 188.925 14.4364 188.884C8.34736 188.511 -0.505405 188.525 0.0220321 182.793C0.477477 177.863 9.65004 177.972 14.7463 177.659Z" fill="#EFAD1B"/>
<path fill-rule="evenodd" clip-rule="evenodd" d="M14.7463 177.659C28.1543 176.823 39.5397 177.081 53.0591 177.206C73.088 177.381 91.8932 177.438 111.418 177.508C136.997 177.593 163.698 178.186 189.562 178.287C217.724 178.393 245.456 178.973 273.721 179.003C273.724 178.629 273.729 178.252 273.733 177.875C281.048 177.768 288.155 177.957 295.438 177.9C295.432 178.17 295.42 178.441 295.417 178.707C299.051 178.568 302.632 178.497 306.014 178.879C308.476 179.155 309.495 179.708 310.443 181.248C324.825 167.486 340.368 152.395 355.852 137.944C355.723 131.618 355.617 125.319 355.553 119.063C362.572 118.829 369.41 118.884 376.384 118.719C378.039 117.25 379.802 116.039 381.816 115.54C382.542 115.36 383.721 114.677 384.485 115.676C385.461 116.964 382.856 120.191 381.501 121.685C380.102 123.223 378.691 124.75 377.266 126.264C377.266 184.684 375.164 240.718 373.308 297.02C369.636 296.557 365.224 297.277 361.493 296.92C360.13 247.755 357.315 196.938 356.08 147.919C353.251 150.783 350.416 153.678 347.581 156.635C341.486 162.991 335.012 169.765 327.835 176.244C324.802 178.982 321.25 182.175 317.717 185.635C314.914 188.374 310.282 193.733 307.09 194.465C304.714 195.006 300.993 194.516 297.451 194.511C296.64 194.506 295.828 194.484 295.017 194.445C293.552 247.248 290.389 298.112 287.416 349.195C283.758 348.69 279.33 349.311 275.609 348.897C275.348 297.624 273.425 244.45 273.611 193.682C271.58 193.651 269.619 193.614 267.778 193.527C253.735 192.885 240.824 192.633 228.463 192.592C202.801 192.503 176.37 192.411 151.368 192.134C115.081 191.731 76.621 191.733 37.805 190.087C36.4705 242.261 32.683 297.058 30.7377 349.89C27.0002 350.181 22.5973 349.422 18.9249 349.812C17.529 296.759 15.9262 243.925 16.287 188.994C15.6693 188.958 15.0517 188.925 14.4364 188.884C8.34736 188.511 -0.505405 188.525 0.0220321 182.793C0.477477 177.863 9.65004 177.972 14.7463 177.659Z" fill="#D29818"/>
<path fill-rule="evenodd" clip-rule="evenodd" d="M383.462 115.131C384.2 115.55 311.969 184.358 310.91 184.59C308.499 185.119 195.16 182.692 157.694 182.556C104.777 182.365 53.2007 182.784 0.942734 180.7C0.0083508 180.22 16.196 168.403 22.8465 163.077C40.646 148.833 88.0965 110.139 89.6045 109.756C91.7711 109.196 369.609 114.933 383.462 115.131Z" fill="#EFAD1B"/>
<path fill-rule="evenodd" clip-rule="evenodd" d="M205.013 184.02C207.516 185.193 212.148 184.672 216.663 183.887C218.596 183.551 221.716 182.959 221.612 181.194C221.484 179.078 217.836 179.187 216.531 179.236C212.4 179.377 207.434 180.388 204.951 181.698C204.556 182.219 204.631 183.375 205.013 184.02ZM193.235 177.474C192.647 181.883 202.38 181.529 201.829 177.871C201.596 176.284 196.821 174.703 194.574 175.568C193.773 175.886 193.335 176.704 193.235 177.474ZM20.323 176.482C17.2979 171.743 31.065 170.813 31.5834 174.967C32.1911 179.846 23.1936 178.654 20.6459 176.906C20.4875 176.795 20.4291 176.646 20.323 176.482ZM33.29 181.687C31.3909 177.551 42.9384 176.117 42.6149 180.817C42.3731 184.377 34.6063 184.552 33.29 181.687Z" fill="white"/>
<path d="M358.71 90.5063L339.683 90.4373L362.23 16.0429L383.314 23.3497L358.71 90.5063Z" fill="#0077B6"/>
<path d="M373.339 50.5741L388 28.9106L382.539 25.4701L373.339 50.5741ZM383.314 23.3497C382.832 24.7441 377.719 24.2364 371.896 22.2191C366.079 20.2033 361.751 17.4373 362.231 16.0429C362.713 14.6508 367.823 15.1563 373.645 17.1736C379.469 19.1939 383.797 21.9553 383.314 23.3497Z" fill="#175474"/>
<path d="M327.271 90.3926L346.479 90.4624L348.204 42.9467L325.895 42.8657L327.271 90.3926ZM326.728 71.7239L319.629 46.5623L325.921 45.1232L326.728 71.7239Z" fill="#EFAD1B"/>
<path d="M325.895 42.8657C325.89 44.3381 330.877 45.5536 337.037 45.5756C343.2 45.5976 348.199 44.4184 348.204 42.946C348.21 41.4721 343.219 40.258 337.056 40.2361C330.896 40.2141 325.9 41.3917 325.895 42.8657Z" fill="#EFAD1B"/>
<path d="M326.728 71.7239L319.629 46.5623L325.921 45.1232L326.728 71.7239ZM325.895 42.8657C325.89 44.3381 330.877 45.5536 337.037 45.5756C343.2 45.5976 348.199 44.4184 348.204 42.946C348.21 41.4721 343.219 40.258 337.056 40.2361C330.896 40.2141 325.9 41.3917 325.895 42.8657Z" fill="#D09719"/>
<path d="M352.429 83.2055L359.583 67.3241L355.425 65.6152L352.429 83.2055Z" fill="white"/>
<path d="M340.368 61.5632L355.705 64.0662L351.181 90.479L337.288 90.429L340.368 61.5632Z" fill="white"/>
<path d="M355.705 64.0662C355.539 65.0787 351.974 65.3424 347.74 64.6505C343.502 63.9541 340.204 62.5764 340.368 61.5639C340.532 60.5469 344.102 60.2916 348.338 60.9797C352.573 61.6753 355.866 63.053 355.705 64.0662Z" fill="white"/>
<path d="M352.429 83.2055L359.583 67.3241L355.425 65.6152L352.429 83.2055ZM355.705 64.0662C355.539 65.0787 351.974 65.3424 347.74 64.6505C343.502 63.9541 340.204 62.5764 340.368 61.5639C340.532 60.5469 344.102 60.2916 348.338 60.9797C352.573 61.6753 355.866 63.053 355.705 64.0662Z" fill="#F9EEEE"/>
<path d="M300.442 90.2956L319.47 90.3646L292.632 4.62341L271.499 11.7772L300.442 90.2956Z" fill="#EFAD1B"/>
<path d="M271.499 11.7772C271.972 13.1746 277.085 12.7047 282.92 10.7268C288.758 8.75501 293.104 6.02082 292.632 4.62342C292.159 3.22828 287.046 3.69813 281.21 5.67147C275.372 7.64481 271.024 10.3775 271.499 11.7772Z" fill="#EFAD1B"/>
<path d="M271.499 11.7772C271.972 13.1746 277.085 12.7047 282.92 10.7268C288.758 8.75501 293.104 6.02082 292.632 4.62342C292.159 3.22828 287.046 3.69813 281.21 5.67147C275.372 7.64481 271.024 10.3775 271.499 11.7772Z" fill="#D09719"/>
<path d="M297.964 90.2865L307.708 90.3222L293.963 46.4221L283.145 50.0853L297.964 90.2865Z" fill="white"/>
<path d="M283.145 50.0854C283.384 50.7992 286.003 50.5628 288.991 49.5481C291.981 48.5371 294.205 47.1375 293.963 46.4213C293.719 45.7075 291.105 45.9462 288.117 46.9571C285.122 47.9718 282.902 49.37 283.145 50.0854Z" fill="white"/>
<path d="M283.145 50.0854C283.384 50.7992 286.003 50.5628 288.991 49.5481C291.981 48.5371 294.205 47.1375 293.963 46.4213C293.719 45.7075 291.105 45.9462 288.117 46.9571C285.122 47.9718 282.902 49.37 283.145 50.0854Z" fill="#F9EEEE"/>
<path d="M287.726 91.3846L300.968 92.8889L274.945 29.8313L260.933 36.547L287.726 91.3846Z" fill="#FF5000"/>
<path d="M270.109 55.3233L258.124 40.7658L261.634 37.9528L270.109 55.3233ZM260.933 36.547C261.375 37.4716 264.872 36.7206 268.741 34.8677C272.612 33.0134 275.39 30.7589 274.945 29.8313C274.504 28.9045 271.005 29.66 267.135 31.5129C263.263 33.3665 260.488 35.6195 260.933 36.547Z" fill="#FF5000"/>
<path d="M270.109 55.3233L258.124 40.7658L261.634 37.9528L270.109 55.3233ZM260.933 36.547C261.375 37.4716 264.872 36.7206 268.741 34.8677C272.612 33.0134 275.39 30.7589 274.945 29.8313C274.504 28.9045 271.005 29.66 267.135 31.5129C263.263 33.3665 260.488 35.6195 260.933 36.547Z" fill="#CA5018"/>
<path d="M303.386 80.7085L294.099 59.7012L299.601 57.4899L303.386 80.7085Z" fill="#175474"/>
<path d="M319.492 52.286L299.246 55.4454L304.96 90.3116L323.282 90.3782L319.492 52.286Z" fill="#0077B6"/>
<path d="M299.246 55.4454C299.456 56.7799 304.155 57.1573 309.75 56.2843C315.339 55.415 319.701 53.6243 319.492 52.286C319.285 50.9493 314.583 50.5741 308.994 51.4471C303.403 52.3126 299.04 54.1033 299.246 55.4454Z" fill="#175474"/>
<path d="M285.389 93.3458L285.26 128.972C285.259 129.795 285.583 130.585 286.163 131.169C286.743 131.753 287.531 132.083 288.354 132.087L358.867 132.343C359.691 132.345 360.481 132.021 361.065 131.441C361.649 130.861 361.979 130.073 361.983 129.249L362.112 93.6232C362.113 93.2154 362.035 92.8113 361.88 92.4339C361.726 92.0566 361.498 91.7134 361.211 91.4241C360.924 91.1347 360.582 90.9048 360.206 90.7476C359.83 90.5904 359.426 90.5089 359.018 90.5078L288.505 90.2524C288.098 90.2507 287.693 90.3294 287.316 90.484C286.939 90.6386 286.596 90.866 286.306 91.1533C286.017 91.4406 285.787 91.7821 285.629 92.1583C285.472 92.5345 285.391 92.938 285.389 93.3458ZM299.347 95.6071C299.348 95.3886 299.392 95.1724 299.476 94.9707C299.56 94.7691 299.684 94.5862 299.839 94.4323C299.994 94.2784 300.178 94.1566 300.38 94.074C300.582 93.9913 300.799 93.9494 301.018 93.9506L317.398 94.0097C317.617 94.0105 317.833 94.0543 318.034 94.1385C318.235 94.2228 318.418 94.3459 318.572 94.5008C318.726 94.6557 318.848 94.8394 318.93 95.0414C319.013 95.2434 319.055 95.4597 319.055 95.678C319.054 95.8963 319.01 96.1123 318.926 96.3137C318.842 96.515 318.718 96.6978 318.564 96.8516C318.409 97.0054 318.225 97.1272 318.023 97.21C317.821 97.2928 317.605 97.335 317.386 97.3342L301.005 97.2751C300.787 97.2745 300.571 97.2309 300.369 97.1467C300.168 97.0626 299.985 96.9395 299.831 96.7846C299.677 96.6297 299.555 96.446 299.472 96.244C299.389 96.0419 299.347 95.8255 299.347 95.6071Z" fill="#EFAD1B"/>
<path d="M285.389 93.3458L285.26 128.972C285.259 129.795 285.583 130.585 286.163 131.169C286.743 131.753 287.531 132.083 288.354 132.087L358.867 132.343C359.691 132.345 360.481 132.021 361.065 131.441C361.649 130.861 361.979 130.073 361.983 129.249L362.112 93.6232C362.113 93.2154 362.035 92.8113 361.88 92.4339C361.726 92.0566 361.498 91.7134 361.211 91.4241C360.924 91.1347 360.582 90.9048 360.206 90.7476C359.83 90.5904 359.426 90.5089 359.018 90.5078L288.505 90.2524C288.098 90.2507 287.693 90.3294 287.316 90.484C286.939 90.6386 286.596 90.866 286.306 91.1533C286.017 91.4406 285.787 91.7821 285.629 92.1583C285.472 92.5345 285.391 92.938 285.389 93.3458ZM299.347 95.6071C299.348 95.3886 299.392 95.1724 299.476 94.9707C299.56 94.7691 299.684 94.5862 299.839 94.4323C299.994 94.2784 300.178 94.1566 300.38 94.074C300.582 93.9913 300.799 93.9494 301.018 93.9506L317.398 94.0097C317.617 94.0105 317.833 94.0543 318.034 94.1385C318.235 94.2228 318.418 94.3459 318.572 94.5008C318.726 94.6557 318.848 94.8394 318.93 95.0414C319.013 95.2434 319.055 95.4597 319.055 95.678C319.054 95.8963 319.01 96.1123 318.926 96.3137C318.842 96.515 318.718 96.6978 318.564 96.8516C318.409 97.0054 318.225 97.1272 318.023 97.21C317.821 97.2928 317.605 97.335 317.386 97.3342L301.005 97.2751C300.787 97.2745 300.571 97.2309 300.369 97.1467C300.168 97.0626 299.985 96.9395 299.831 96.7846C299.677 96.6297 299.555 96.446 299.472 96.244C299.389 96.0419 299.347 95.8255 299.347 95.6071Z" fill="#D29818"/>
<path d="M333.519 129.146C333.516 129.969 333.841 130.76 334.421 131.344C335 131.928 335.788 132.258 336.611 132.262L358.867 132.342C359.69 132.344 360.48 132.02 361.064 131.44C361.648 130.86 361.978 130.072 361.982 129.249L362.111 93.6224C362.113 93.2147 362.034 92.8105 361.879 92.4332C361.725 92.0558 361.497 91.7127 361.21 91.4233C360.923 91.1339 360.581 90.9041 360.205 90.7469C359.829 90.5896 359.425 90.5081 359.017 90.5071L336.762 90.4267C336.354 90.4249 335.95 90.5036 335.573 90.6581C335.195 90.8127 334.852 91.0401 334.563 91.3274C334.274 91.6147 334.044 91.9563 333.886 92.3325C333.729 92.7088 333.648 93.1123 333.647 93.5201L333.519 129.146Z" fill="#D29818"/>
<path d="M153.64 111.768L163.071 58.4698C163.489 55.9614 165.616 54.0661 168.157 53.9911L245.324 52.38C246.1 52.3489 246.873 52.4865 247.59 52.7832C248.307 53.0799 248.951 53.5288 249.478 54.0987C250.004 54.6692 250.399 55.3466 250.639 56.0845C250.878 56.8223 250.955 57.6032 250.864 58.3735L239.457 118.598C239.314 119.821 238.755 120.957 237.874 121.816C236.993 122.676 235.844 123.207 234.619 123.321C234.33 123.349 234.043 123.347 233.748 123.329L158.553 118.01C157.807 117.957 157.08 117.748 156.419 117.398C155.758 117.048 155.178 116.563 154.714 115.976C154.253 115.387 153.92 114.709 153.735 113.985C153.55 113.261 153.517 112.506 153.64 111.768Z" fill="#0077B6"/>
<path d="M159.229 107.082L233.906 112.989L244.483 59.1003L167.968 59.805L159.229 107.082Z" fill="#175474"/>
<path fill-rule="evenodd" clip-rule="evenodd" d="M235.449 74.7847C235.851 74.0754 235.326 73.4434 234.861 72.8334C234.496 72.3673 233.979 71.808 233.365 71.7936C232.502 71.7861 232.513 72.9887 232.856 73.6435C232.967 73.8564 233.365 74.3187 233.589 74.5551C234.075 75.053 235.01 75.5653 235.449 74.7847ZM234.144 68.3812C234.623 67.4286 233.941 66.6693 233.293 66.085C232.464 65.3318 231.175 64.4694 230.088 63.779C228.741 62.9363 226.24 62.1997 225.777 63.9116C225.279 65.7046 228.543 67.321 230.185 68.2031C231.394 68.8465 233.456 69.743 234.144 68.3812Z" fill="white"/>
<path d="M102.192 130.234C102.31 130.248 102.428 130.252 102.546 130.26L172.255 148.153L238.893 119.963C239.005 119.947 239.113 119.916 239.221 119.89C239.541 120.472 239.768 121.108 239.854 121.798C240.004 122.957 239.771 124.134 239.19 125.149C238.609 126.164 237.713 126.961 236.637 127.419L174.404 153.871C173.887 154.086 173.341 154.221 172.784 154.272C172.145 154.332 171.485 154.272 170.855 154.094L106.067 135.963C104.958 135.652 103.979 134.993 103.273 134.083C102.568 133.172 102.174 132.059 102.15 130.908C102.143 130.683 102.165 130.454 102.192 130.234Z" fill="#0077B6"/>
<path d="M239.172 119.847L172.257 148.152L102.193 130.169L102.155 130.16L102.194 130.142L153.67 111.209L239.172 119.847Z" fill="#0077B6"/>
<path opacity="0.46" d="M239.172 119.847L172.257 148.152L102.193 130.169L102.155 130.16L102.194 130.142L153.67 111.209L239.172 119.847Z" fill="white"/>
<path d="M177.24 133.173L178.776 133.456C179.84 133.645 180.541 134.653 180.337 135.69C180.179 136.552 179.455 137.164 178.603 137.254C178.421 137.272 178.238 137.264 178.059 137.229L176.519 136.953C175.456 136.761 174.756 135.759 174.956 134.72C175.157 133.676 176.178 132.991 177.24 133.173ZM168.779 131.659L170.318 131.934C171.382 132.127 172.08 133.129 171.878 134.165C171.714 135.024 170.987 135.643 170.138 135.726C169.965 135.745 169.78 135.741 169.595 135.707L168.055 135.432C166.992 135.236 166.297 134.234 166.493 133.191C166.695 132.151 167.715 131.466 168.779 131.659ZM185.701 134.698L187.242 134.981C188.303 135.173 189.006 136.174 188.805 137.211C188.642 138.073 187.914 138.693 187.068 138.775C186.885 138.791 186.7 138.784 186.519 138.754L184.979 138.478C183.918 138.283 183.218 137.284 183.418 136.244C183.619 135.204 184.643 134.516 185.701 134.698ZM134.926 125.56L136.468 125.842C137.523 126.028 138.225 127.03 138.024 128.073C137.859 128.932 137.137 129.55 136.29 129.637C136.107 129.655 135.924 129.647 135.744 129.612L134.203 129.34C133.137 129.148 132.445 128.145 132.64 127.106C132.843 126.063 133.865 125.374 134.926 125.56ZM124.178 125.582C124.377 124.535 125.405 123.853 126.467 124.042L128.004 124.321C129.065 124.513 129.761 125.512 129.566 126.555C129.4 127.407 128.672 128.033 127.828 128.116C127.651 128.132 127.464 128.122 127.282 128.091L125.741 127.812C124.679 127.619 123.978 126.624 124.178 125.582ZM143.365 127.081L144.646 127.31L144.923 127.365L144.93 127.364L152.674 128.758L153.39 128.886L163.8 130.76C164.861 130.955 165.558 131.955 165.363 132.994C165.196 133.85 164.47 134.475 163.618 134.556C163.445 134.571 163.259 134.568 163.077 134.541L161.131 134.184L160.994 134.162L151.954 132.53L151.128 132.38L143.922 131.087L142.668 130.865H142.667L142.64 130.858C141.583 130.665 140.885 129.666 141.081 128.624C141.283 127.58 142.301 126.895 143.365 127.081ZM192.042 127.121L193.587 127.372C194.655 127.536 195.375 128.519 195.196 129.563C195.047 130.445 194.319 131.08 193.452 131.169C193.282 131.186 193.11 131.179 192.941 131.15L191.399 130.905C190.334 130.74 189.613 129.751 189.79 128.707C189.971 127.663 190.978 126.949 192.042 127.121ZM168.557 125.329C168.483 125.751 168.271 126.137 167.955 126.426C167.639 126.715 167.236 126.892 166.809 126.928C166.641 126.949 166.471 126.945 166.304 126.916L164.758 126.668C163.692 126.501 162.977 125.52 163.153 124.477C163.325 123.426 164.332 122.719 165.399 122.887L166.947 123.131C168.014 123.299 168.74 124.285 168.557 125.329ZM159.677 123.922C159.523 124.797 158.79 125.437 157.931 125.521C157.763 125.539 157.593 125.533 157.426 125.505L155.877 125.257C154.808 125.09 154.094 124.109 154.274 123.062C154.449 122.015 155.462 121.3 156.525 121.482L158.069 121.723C159.132 121.892 159.854 122.875 159.677 123.922ZM200.922 128.528L202.47 128.776C203.532 128.944 204.255 129.927 204.077 130.977C203.929 131.855 203.193 132.492 202.331 132.576C202.163 132.597 201.992 132.593 201.825 132.564L200.284 132.316C199.212 132.152 198.495 131.162 198.673 130.119C198.851 129.077 199.857 128.36 200.922 128.528ZM183.16 125.713L184.709 125.957C185.773 126.122 186.49 127.105 186.318 128.151C186.167 129.033 185.435 129.673 184.571 129.757C184.402 129.774 184.232 129.767 184.065 129.738L182.518 129.49C181.454 129.326 180.735 128.339 180.912 127.303C181.087 126.249 182.097 125.538 183.16 125.713ZM136.512 120.237C136.687 119.193 137.694 118.482 138.764 118.65L140.308 118.898C141.371 119.066 142.094 120.052 141.911 121.1C141.768 121.974 141.031 122.618 140.173 122.695C140.003 122.716 139.832 122.712 139.664 122.683L138.123 122.441C137.05 122.267 136.333 121.288 136.512 120.237ZM174.282 124.298L175.828 124.546C176.892 124.711 177.613 125.697 177.434 126.74C177.29 127.621 176.551 128.262 175.691 128.349C175.522 128.364 175.352 128.358 175.185 128.33L173.638 128.082C172.574 127.914 171.855 126.928 172.031 125.877C172.206 124.841 173.217 124.13 174.282 124.298ZM150.795 122.511C150.649 123.386 149.913 124.029 149.056 124.116C148.886 124.128 148.715 124.123 148.546 124.101L147.001 123.849C145.932 123.678 145.217 122.695 145.39 121.648C145.569 120.601 146.578 119.89 147.641 120.068L149.187 120.309C150.253 120.481 150.975 121.464 150.795 122.511ZM161.259 118.983C161.113 118.995 160.967 118.993 160.822 118.977L159.27 118.784C158.199 118.657 157.444 117.699 157.583 116.646C157.721 115.599 158.703 114.85 159.777 114.984L161.329 115.169C162.394 115.303 163.153 116.262 163.015 117.318C162.895 118.22 162.154 118.898 161.259 118.983ZM170.575 120.128C170.43 120.146 170.283 120.145 170.137 120.125L168.585 119.933C167.515 119.799 166.758 118.841 166.898 117.791C167.036 116.741 168.014 115.996 169.09 116.129L170.641 116.322C171.712 116.452 172.468 117.411 172.326 118.464C172.21 119.366 171.47 120.041 170.575 120.128ZM151.944 117.836C151.799 117.853 151.653 117.852 151.509 117.833L151.18 117.791C150.106 117.661 149.349 116.696 149.488 115.649C149.629 114.599 150.611 113.851 151.682 113.987L152.007 114.03C153.079 114.163 153.838 115.121 153.696 116.171C153.581 117.077 152.836 117.748 151.944 117.836ZM215.668 121.854L217.221 122.05C218.292 122.177 219.048 123.138 218.909 124.189C218.849 124.624 218.642 125.026 218.324 125.329C218.006 125.631 217.594 125.818 217.157 125.857C217.011 125.875 216.863 125.874 216.717 125.854L215.164 125.661C214.09 125.532 213.336 124.576 213.478 123.519C213.615 122.469 214.597 121.724 215.668 121.854ZM176.212 118.941C176.348 117.891 177.334 117.142 178.405 117.272L179.959 117.465C181.025 117.592 181.786 118.55 181.645 119.603C181.526 120.508 180.782 121.194 179.894 121.281C179.748 121.29 179.601 121.286 179.455 121.268L177.903 121.079C176.832 120.949 176.076 119.991 176.212 118.941ZM185.525 120.081C185.663 119.034 186.65 118.288 187.719 118.423L189.275 118.611C190.346 118.742 191.104 119.7 190.965 120.75C190.842 121.655 190.1 122.337 189.208 122.425C189.069 122.433 188.92 122.429 188.772 122.415L187.215 122.226C186.147 122.095 185.391 121.137 185.525 120.081ZM206.352 120.708L207.906 120.901C208.972 121.032 209.733 121.99 209.594 123.046C209.472 123.945 208.73 124.633 207.838 124.721C207.698 124.726 207.55 124.725 207.4 124.704L205.844 124.515C204.776 124.384 204.021 123.426 204.157 122.372C204.296 121.33 205.282 120.581 206.352 120.708ZM197.036 119.565L198.588 119.755C199.662 119.891 200.417 120.847 200.279 121.903C200.157 122.799 199.412 123.48 198.52 123.568C198.376 123.58 198.231 123.577 198.087 123.558L196.533 123.373C195.46 123.236 194.704 122.281 194.844 121.231C194.981 120.177 195.964 119.432 197.036 119.565Z" fill="#0077B6"/>
<path fill-rule="evenodd" clip-rule="evenodd" d="M270.491 146.825C270.882 148.216 272.241 149.416 272.71 151.074C273.06 152.301 273.228 153.767 273.076 155.139C272.783 157.784 270.557 159.205 270.085 161.296C280.729 163.356 292.311 164.504 304.156 165.932C307.589 166.344 313.45 167.117 316.189 165.321C318.9 163.543 319.842 156.795 316.828 154.02C314.93 152.272 310.355 151.419 306.32 150.974C298.715 150.144 289.573 149.86 282.437 148.742C278.118 148.067 274.18 147.363 270.491 146.825Z" fill="white"/>
<path fill-rule="evenodd" clip-rule="evenodd" d="M280.332 153.004C280.517 154.272 313.256 158.026 313.476 156.615C313.633 155.633 305.333 155.142 297.179 154.303C288.64 153.422 280.221 152.231 280.332 153.004ZM273.941 155.779C274.125 157.044 306.865 160.798 307.089 159.386C307.243 158.408 298.943 157.917 290.789 157.075C282.247 156.194 273.83 155.003 273.941 155.779Z" fill="#0077B6"/>
<path fill-rule="evenodd" clip-rule="evenodd" d="M314.108 154.184C316.7 156.033 317.435 161.329 315.002 163.435C301.923 162.353 288.383 160.712 274.723 160.161C273.04 160.094 269.706 159.233 269.416 161.392C269.115 163.611 272.678 163.395 274.319 163.651C285.509 165.403 297.823 167.507 310.563 167.511C312.842 167.514 315.596 167.65 317.35 166.977C318.737 166.446 320.206 164.551 321.371 163.188C327.045 156.562 332.811 148.618 337.628 141.378C339.462 138.625 342.347 134.865 342.882 131.917C343.983 125.861 339.518 124.481 334.536 123.3C330.956 122.453 327.39 122.171 324.257 121.825C316.301 120.954 310.202 119.685 303.92 118.847C299.175 118.212 294.797 123.158 291.842 125.413C285.399 130.325 281.085 133.611 274.885 139.32C273.28 140.803 267.941 145.586 268.766 147.537C269.645 149.616 277.018 149.503 279.622 149.841C291.251 151.343 302.67 152.869 314.108 154.184Z" fill="#175474"/>
<path fill-rule="evenodd" clip-rule="evenodd" d="M319.085 154.388C321.64 155.205 340.383 128.786 339.289 127.869C338.571 127.263 334.675 133.264 329.983 139.438C324.543 146.593 318.305 154.139 319.085 154.388Z" fill="black"/>
<path fill-rule="evenodd" clip-rule="evenodd" d="M333.412 123.463C332.575 121.664 330.991 121.086 330.073 119.374C329.452 118.22 329.131 116.381 328.524 115.028C326.828 115.462 325.697 118.333 324.695 120.159C322.608 123.965 321.272 126.923 318.968 131.058C318.119 132.584 316.714 135.426 315.556 135.902C312.959 136.969 307.967 135.705 304.961 135.39C297.787 134.64 292.442 133.893 284.568 133.562C280.141 133.377 274.199 133.598 274.24 138.043C274.278 142.251 278.851 143.472 282.488 144.389C286.288 145.348 290.292 146.065 293.569 146.659C297.096 147.299 300.643 148.145 305.063 148.641C308.703 149.049 314.117 150.007 317.42 148.668C319.288 147.913 321.194 144.673 322.303 142.923C326.52 136.261 329.285 130.166 333.412 123.463Z" fill="white"/>
<path fill-rule="evenodd" clip-rule="evenodd" d="M333.837 121.618C332.631 120.962 324.523 135.293 320.92 141.297C319.602 143.495 318.584 146.888 316.81 147.614C314.485 148.566 308.011 147.269 305.732 146.944C298.313 145.89 292.554 144.946 285.298 143.292C282.772 142.715 277.227 141.959 276.167 140.28C275.539 139.279 275.093 137.423 275.644 136.697C276.713 135.286 282.438 135.983 285.63 136.154C293.974 136.596 301.732 137.826 310.253 138.738C312.01 138.925 314.107 139.294 315.309 138.914C317.219 138.312 318.364 135.21 319.519 133.268C323.14 127.183 329.817 116.39 328.906 114.514C327.919 112.476 302.481 110.229 292.569 111.584C291.415 111.739 289.102 111.976 287.513 113.007C282.765 116.093 278.43 124.506 275.851 130.26C274.873 132.444 273.463 135.108 273.407 137.024C273.251 142.427 276.014 143.101 279.702 144.108C288.683 146.561 296.72 147.691 306.508 149.116C307.987 149.331 310.107 149.723 312.111 149.903C314.153 150.085 316.673 150.327 318.259 149.691C319.987 148.998 321.539 145.185 322.59 143.339C325.349 138.499 334.833 122.16 333.837 121.618Z" fill="#871F31"/>
<path fill-rule="evenodd" clip-rule="evenodd" d="M280.704 131.994C281.247 132.698 282.694 130.383 283.445 129.093C284.881 126.615 288.144 122.159 289.629 119.152C290.51 117.373 292.223 114.074 291.347 113.638C290.66 113.298 289.279 115.912 288.539 117.217C286.983 119.968 283.792 124.728 282.131 127.582C281.475 128.715 280.011 131.098 280.704 131.994Z" fill="black"/>
<path d="M319.028 139.636C318.08 140.977 317.185 142.341 316.216 143.591C315.846 144.049 315.421 144.535 315.085 144.773C315.004 144.834 314.933 144.845 314.988 144.823C315.072 144.817 314.921 144.823 314.893 144.821L314.701 144.813C314.402 144.791 314.103 144.763 313.805 144.729C312.56 144.601 311.318 144.453 310.078 144.285C307.577 143.998 305.073 143.695 302.549 143.489C300.935 143.352 299.316 143.233 297.69 143.174C296.776 143.137 296.577 143.61 297.401 143.829C299.038 144.259 300.687 144.621 302.341 144.948C304.827 145.452 307.331 145.834 309.853 146.157C311.116 146.289 312.376 146.434 313.668 146.503C313.995 146.518 314.315 146.533 314.667 146.528L314.948 146.515C315.081 146.506 315.087 146.518 315.327 146.47C315.686 146.382 315.898 146.231 316.065 146.099C316.726 145.552 317.048 144.996 317.418 144.434C318.314 142.963 319.023 141.444 319.666 139.902C320.003 139.1 319.545 138.899 319.028 139.636Z" fill="#0077B6"/>
<path fill-rule="evenodd" clip-rule="evenodd" d="M278.063 137.451C278.248 138.718 310.987 142.473 311.206 141.061C311.364 140.083 303.064 139.588 294.91 138.749C286.371 137.869 277.952 136.678 278.063 137.451Z" fill="#0077B6"/>
<path d="M176.595 277.798C180.015 277.584 185.325 279.333 186.672 276.7C187.782 274.523 185.76 269.581 184.852 267.053C182.712 261.111 178.882 254.46 173.503 251.974C167.664 249.286 159.992 248.825 152.301 247.929C144.278 246.992 136.212 245.624 129.501 245.579C128.229 244.702 128.383 242.981 127.927 241.601C121.57 222.199 113.21 201.619 104.802 184.223C100.006 174.302 95.1767 165.487 87.3894 158.915C79.6113 152.356 68.5442 149.181 55.3385 148.309C43.9236 147.545 34.6874 149.791 33.5522 160.425C32.6625 168.779 35.6255 177.736 37.708 184.83C43.866 205.815 54.0434 227.854 61.0843 245.899C49.9747 246.102 51.0372 261.041 51.7094 272.242C52.5907 273.376 54.0328 273.92 56.213 273.676C52.7013 300.88 36.7297 371.819 36.5198 373.358L42.6035 373.38C42.7293 372.25 60.7773 301.335 65.2325 273.994C80.285 274.489 97.6639 274.962 113.75 275.304C115.082 279.399 127.337 349.135 131.024 373.701L136.659 373.721C133.833 345.633 126.756 303.561 124.096 275.626C137.854 275.519 153.117 276.258 166.782 277.202C175.112 300.085 199.186 370.276 200.5 373.952L206.271 373.973C197.797 346.6 185 305.373 176.595 277.798ZM68.2479 245.069C63.4251 232.257 57.8969 219.24 52.2216 204.739C48.5478 195.356 43.9638 184.036 41.732 172.649C40.5074 166.414 39.0903 157.318 44.7064 156.493C57.7719 183.684 66.8467 215.107 77.5326 244.826C74.2747 244.733 71.6338 245.302 68.2479 245.069ZM84.9599 244.564C74.2164 214.718 65.3257 182.915 51.867 155.948C55.362 155.726 57.8795 156.534 61.1487 156.551C71.2943 185.331 81.1663 214.402 89.9978 244.582L84.9599 244.564ZM97.4206 244.61C91.152 222.485 83.6315 200.157 76.4413 179.298C74.2346 172.884 71.755 166.688 69.8809 160.555C69.7218 160.033 68.4525 158.8 69.6248 158.28C72.162 158.977 74.6597 159.718 76.7748 160.862C83.8611 189.785 93.8574 215.618 100.872 244.622L97.4206 244.61ZM108.298 244.649C101.741 217.801 92.5554 192.231 85.5002 166.85C94.3325 177.019 100.067 190.236 105.79 203.514C111.587 216.949 116.66 231.129 121.816 244.985C117.021 245.176 113.052 244.495 108.298 244.649Z" fill="#175474"/>
<path fill-rule="evenodd" clip-rule="evenodd" d="M72.8167 254.355C70.898 251.354 79.6196 250.016 78.5799 253.422C78.0388 255.198 74.3733 254.946 72.8167 254.355ZM67.4476 251.666C68.1463 251.854 69.4808 252.639 69.0231 254.11C68.4313 256.032 64.7127 256.877 63.3039 257.512C61.5852 258.283 58.6714 260.564 57.0088 259.195C54.6376 257.239 59.4656 254.595 61.1586 253.761C62.0626 253.316 62.9849 252.974 63.7639 252.64C65.0984 252.068 66.104 251.308 67.4476 251.666Z" fill="white"/>
<path fill-rule="evenodd" clip-rule="evenodd" d="M198.845 327.416C199.138 326.331 204.947 326.749 205.244 325.665C207.094 318.894 208.978 312.155 210.374 305.454C202.067 303.97 192.469 300.687 184.89 300.408C182.815 307.865 181.848 314.735 180.462 322.72L180.309 323.583C180.009 325.243 185.247 327.04 184.94 328.925L198.845 327.416Z" fill="#F7C4AD"/>
<path d="M179.197 345.645C177.845 342.908 178.356 337.476 178.699 333.903C179.054 330.142 179.757 326.647 180.304 323.582L205.241 325.664C204.492 328.393 203.763 331.128 203.054 333.869C202.228 337.108 201.117 340.403 201.069 343.507C200.989 347.976 203.359 352.368 206.318 357.615C208.062 360.706 212.175 366.484 209.897 368.599C208.328 370.053 204.341 367.96 201.931 366.541C196.159 363.131 191.325 358.642 186.402 353.915C183.733 351.341 180.612 348.505 179.197 345.645Z" fill="#175474"/>
<path fill-rule="evenodd" clip-rule="evenodd" d="M191.339 352.842C191.634 352.095 191.028 351.551 190.486 351.022C190.068 350.616 189.487 350.129 188.887 350.208C188.047 350.318 188.219 351.486 188.644 352.084C188.778 352.274 189.23 352.677 189.485 352.877C190.028 353.29 191.013 353.667 191.339 352.842ZM189.178 346.761C189.523 345.771 188.749 345.117 188.041 344.638C187.124 344.014 185.75 343.35 184.593 342.825C183.163 342.184 180.617 341.801 180.393 343.538C180.158 345.364 183.563 346.494 185.294 347.128C186.556 347.59 188.696 348.194 189.178 346.761Z" fill="white"/>
<path fill-rule="evenodd" clip-rule="evenodd" d="M177.622 313.239C177.728 313.273 177.832 313.305 177.937 313.345C178.098 313.356 178.278 313.371 178.484 313.39C179.481 313.457 180.482 313.54 181.484 313.631C184.584 314.027 187.681 314.417 190.755 314.972C195.722 315.866 200.661 316.905 205.567 318.088C208.082 318.694 210.601 319.342 213.108 319.996C214.549 315.487 215.901 310.937 217.264 306.382C220.089 296.919 222.922 287.323 225.606 277.47C229.461 263.273 232.264 248.478 234.36 234.269C235.683 225.3 238.242 213.552 229.299 205.479C224.719 201.348 218.118 199.906 212.71 198.798C208.01 197.841 203.184 197.279 198.958 196.774C171.142 193.481 141.415 194.407 114.793 197.139C114.233 218.936 114.747 241.095 115.778 262.899C137.604 261.001 159.742 255.13 181.22 251.732C184.339 251.239 187.49 250.299 190.696 250.521C185.43 270.135 181.664 289.953 178.3 309.432C178.081 310.701 177.852 311.969 177.622 313.239Z" fill="#871F31"/>
<path fill-rule="evenodd" clip-rule="evenodd" d="M177.622 313.239C177.728 313.273 177.832 313.305 177.937 313.345C178.098 313.356 178.278 313.371 178.484 313.39C179.481 313.457 180.482 313.54 181.484 313.631C184.584 314.027 187.681 314.417 190.755 314.972C195.722 315.866 200.661 316.905 205.567 318.088C208.082 318.694 210.601 319.342 213.108 319.996C214.549 315.487 215.901 310.937 217.264 306.382C220.089 296.919 222.922 287.323 225.606 277.47C229.461 263.273 232.264 248.478 234.36 234.269C235.683 225.3 238.242 213.552 229.299 205.479C224.719 201.348 218.118 199.906 212.71 198.798C208.01 197.841 203.184 197.279 198.958 196.774C171.142 193.481 141.415 194.407 114.793 197.139C114.233 218.936 114.747 241.095 115.778 262.899C137.604 261.001 159.742 255.13 181.22 251.732C184.339 251.239 187.49 250.299 190.696 250.521C185.43 270.135 181.664 289.953 178.3 309.432C178.081 310.701 177.852 311.969 177.622 313.239Z" fill="#871F31"/>
<path d="M177.622 313.239C177.728 313.273 177.832 313.305 177.937 313.345C178.098 313.356 178.278 313.371 178.484 313.39C179.481 313.457 180.482 313.54 181.484 313.631C184.12 313.971 186.755 314.32 189.376 314.751C189.659 313.413 189.948 312.073 190.269 310.737C193.004 299.143 196.74 287.411 199.709 275.754C200.698 271.83 201.234 267.757 201.897 263.967C202.507 260.459 203.465 256.726 203.376 252.183C203.3 248.406 203.083 243.007 199.496 240.376C197.112 238.632 191.067 239.366 187.168 239.787C182.575 240.284 178.2 240.627 174.835 240.988C157.608 242.852 142.805 246.112 125.319 247.034C122.059 247.206 118.693 247.312 115.375 247.195C115.416 252.427 115.532 257.66 115.779 262.9C137.606 261.002 159.743 255.131 181.222 251.733C184.341 251.24 187.491 250.3 190.698 250.522C185.431 270.136 181.665 289.953 178.301 309.433C178.081 310.701 177.852 311.969 177.622 313.239Z" fill="#9B2136"/>
<path fill-rule="evenodd" clip-rule="evenodd" d="M229.101 228.09C228.934 228.011 228.752 227.969 228.567 227.969C228.383 227.968 228.2 228.008 228.033 228.086C225.882 225.393 227.412 222.207 227.889 218.971C228.074 217.771 228.061 213.954 230.583 215.588C231.29 216.046 231.456 218.223 231.465 218.635C231.563 221.392 230.984 226.052 229.101 228.09ZM227.099 237.194C225.316 235.58 226.196 233.978 227.653 232.374C230.386 231.891 230.148 235.406 228.352 237.019C227.936 236.953 227.519 237.138 227.099 237.194Z" fill="white"/>
<path fill-rule="evenodd" clip-rule="evenodd" d="M84.3794 344.973C86.3687 347.67 87.8631 346.782 89.625 349.503L90.6549 351.22C92.0099 350.435 93.1648 351.292 94.5243 350.516C100.621 347.033 106.717 343.596 112.443 339.84C107.61 332.92 103.138 323.817 97.9746 318.264C91.2392 322.073 85.7026 326.248 79.0687 330.921L78.3586 331.418C77.5857 331.956 79.9303 334.786 79.0945 335.367C81.8931 339.338 81.496 341.063 84.3794 344.973Z" fill="#F7C4AD"/>
<path d="M61.9763 346.249C62.9546 343.353 67.1642 339.868 69.9257 337.585C72.8342 335.178 75.8048 333.201 78.3579 331.417L94.5235 350.514C92.067 351.917 89.6199 353.336 87.1826 354.771C84.3067 356.479 81.1883 358.034 78.9634 360.194C75.7487 363.294 74.3248 368.08 72.7061 373.88C71.7558 377.3 70.5789 384.299 67.4772 384.179C65.3432 384.102 63.9973 379.806 63.2979 377.095C61.6224 370.6 61.3723 364.016 61.2359 357.187C61.1624 353.482 60.9562 349.267 61.9763 346.249Z" fill="#175474"/>
<path fill-rule="evenodd" clip-rule="evenodd" d="M65.4789 359.917C66.2192 359.593 66.1806 358.781 66.1723 358.023C66.1632 357.442 66.0904 356.692 65.6122 356.318C64.9355 355.802 64.2338 356.758 64.1156 357.472C64.0739 357.704 64.1125 358.31 64.1527 358.631C64.2398 359.311 64.671 360.27 65.4789 359.917ZM68.2532 354.092C69.1967 353.623 69.1027 352.623 68.9481 351.784C68.742 350.692 68.2373 349.249 67.7879 348.061C67.234 346.598 65.7001 344.533 64.3118 345.597C62.8636 346.721 64.4687 349.932 65.2394 351.606C65.8085 352.823 66.9005 354.761 68.2532 354.092Z" fill="white"/>
<path fill-rule="evenodd" clip-rule="evenodd" d="M84.1712 321.535C84.2235 321.637 84.2713 321.735 84.3167 321.834C84.4251 321.954 84.541 322.094 84.679 322.251C85.333 323.008 85.9862 323.766 86.625 324.541C88.54 327.016 90.452 329.479 92.2397 332.046C95.1223 336.186 97.8814 340.41 100.513 344.713C101.862 346.93 103.193 349.157 104.506 351.395C108.708 349.22 112.883 346.961 117.066 344.702C125.752 340.002 134.535 335.218 143.398 330.14C156.16 322.825 168.598 314.338 180.126 305.764C187.4 300.354 197.513 293.855 196.89 281.819C196.567 275.66 192.923 269.98 189.871 265.368C187.226 261.371 184.212 257.564 181.577 254.222C164.226 232.235 142.536 211.88 121.772 195C105.97 210.019 90.6763 226.06 76.0005 242.217C92.7807 256.299 112.585 267.787 130.183 280.568C132.742 282.425 135.632 283.986 137.739 286.405C120.155 296.559 103.486 307.921 87.3457 319.322C86.2907 320.064 85.2326 320.802 84.1712 321.535Z" fill="#871F31"/>
<path d="M83.7664 322.201C83.8187 322.303 83.8664 322.401 83.9119 322.5C84.0202 322.62 84.1362 322.76 84.2741 322.918C84.9281 323.674 85.5813 324.432 86.2202 325.207C87.8479 327.308 89.4606 329.418 91.0133 331.582C92.1589 330.828 93.3157 330.09 94.4834 329.37C104.619 323.1 115.547 317.436 125.884 311.292C129.362 309.219 132.615 306.714 135.758 304.501C138.673 302.452 141.988 300.486 145.136 297.21C147.753 294.484 151.413 290.505 150.735 286.112C150.284 283.2 145.485 279.443 142.429 276.982C138.828 274.088 135.492 271.237 132.855 269.117C119.349 258.262 106.573 250.104 93.5475 238.399C91.1171 236.217 88.6649 233.916 86.4005 231.487C82.7297 235.217 79.1119 239.005 75.5941 242.884C92.3744 256.966 112.178 268.454 129.777 281.235C132.336 283.091 135.226 284.653 137.332 287.072C119.749 297.226 103.079 308.588 86.9393 319.989C85.8875 320.731 84.8273 321.466 83.7664 322.201Z" fill="#9B2136"/>
<path fill-rule="evenodd" clip-rule="evenodd" d="M180.369 298.348C180.306 298.174 180.205 298.015 180.074 297.884C179.943 297.753 179.785 297.652 179.611 297.588C179.994 294.157 183.326 292.985 185.951 291.041C186.933 290.316 189.621 287.607 190.252 290.55C190.429 291.372 189.002 293.023 188.723 293.32C186.846 295.346 183.141 298.238 180.369 298.348ZM172.515 303.372C172.393 300.968 174.154 300.456 176.318 300.355C178.585 301.941 175.936 304.26 173.521 304.131C173.275 303.789 172.852 303.624 172.515 303.372ZM135.067 217.071C132.167 217.116 129.938 215.154 128.255 213.764C126.606 212.402 124.302 210.734 123.98 208.185C125.736 207.085 128.517 208.57 130.541 210.235C132.61 211.929 136.35 214.741 135.067 217.071ZM135.039 224.654C133.116 225.447 131.358 224.07 130.244 223.123C129.178 222.219 127.574 220.782 127.73 219.068C129.775 217.926 135.791 221.005 135.039 224.654Z" fill="white"/>
<path fill-rule="evenodd" clip-rule="evenodd" d="M127.604 125.816C127.501 129.046 127.968 131.867 128.661 134.515C118.88 135.329 109.122 136.394 99.3962 137.709C100.096 112.571 71.8452 64.361 100.997 59.4898L116.927 58.5888C118.454 62.5498 120.319 66.0714 122.373 69.4323C125.589 74.7036 129.573 79.3399 131.914 85.2797C134.578 92.0325 134.602 100.109 132.904 106.848C131.351 113.076 127.821 118.706 127.604 125.816Z" fill="#175474"/>
<path fill-rule="evenodd" clip-rule="evenodd" d="M196.11 100.935C189.126 104.865 182.624 109.031 176.44 113.078C182.105 119.772 184.974 122.829 190.548 129.008C194.217 126.098 199.803 125.39 203.147 122.387C208.303 117.763 214.266 112.341 220.392 106.968C224.492 103.379 229.218 99.3348 233.449 95.3669C237.05 91.9893 236.362 88.0434 231.125 87.4857C224.043 86.7324 218.205 90.2153 212.332 92.9374C206.752 95.5192 201.312 98.0139 196.11 100.935Z" fill="#F7C4AD"/>
<path fill-rule="evenodd" clip-rule="evenodd" d="M240.354 89.1286C241.487 89.221 245.309 88.8285 247.11 89.2726C247.803 89.4454 248.581 89.8485 248.56 90.4813C248.53 91.8105 245.48 91.8416 244.42 92.006C242.583 92.2781 241.328 92.5766 239.754 92.7631C241.03 93.0465 244.735 92.6464 246.97 93.0715C247.904 93.2466 248.948 93.6255 248.889 94.4371C248.816 95.4685 246.319 95.7829 245.484 95.9072C241.45 96.5408 236.965 97.2796 233.871 98.4148C230.318 99.7236 227.422 101.323 224.522 103.631C223.826 104.186 222.566 105.668 221.672 105.629C221.248 105.613 220.361 104.945 220.074 104.649C219.077 103.63 218.308 102.091 217.254 100.219C216.85 99.5068 216.421 98.8112 216.049 97.848C215.738 97.0621 215.059 95.7822 215.083 95.3783C215.111 94.7341 216.149 93.5845 216.779 92.9124C218.61 90.9496 221.392 88.3973 222.948 86.812C224.307 85.4383 225.655 84.0537 226.991 82.6584C228.2 81.3928 232.147 77.2037 233.981 78.5283C235.486 79.6158 231.176 83.2252 230.548 84.5317C232.84 83.4708 236.821 82.3394 241.056 82.1681C242.168 82.1241 244.502 81.9089 244.735 82.8622C245.055 84.1627 243.205 84.3983 242.377 84.6704C241.234 85.0463 240.424 85.4388 239.386 85.5843C240.918 85.7897 244.353 85.3494 246.131 85.8503C246.706 86.0079 247.339 86.4156 247.353 86.9165C247.364 88.0517 245.518 88.0639 244.313 88.3026C242.665 88.6254 241.619 88.9391 240.478 89.1377C240.443 89.1339 240.402 89.1339 240.354 89.1286Z" fill="#F7C4AD"/>
<path fill-rule="evenodd" clip-rule="evenodd" d="M143.756 116.96C154.332 112.285 167.029 106.815 178.695 101.979C180.281 101.326 182.445 100.287 184.56 99.4818C186.379 98.7884 189.502 97.6737 191.215 97.9427C193.628 98.3277 197.647 104.977 199.083 107.061C200.354 108.902 201.299 110.735 202.309 112.396C203.48 114.332 205.326 116.203 205.582 118.973C205.887 122.309 203.226 124.014 200.647 125.657C193.12 130.468 186.06 133.821 177.796 138.117C167.151 143.647 157.31 150.304 142.219 149.887C134.92 149.687 126.642 147.019 119.549 143.913C106.265 138.096 94.7273 129.903 84.193 121.072C81.7339 119.02 79.1892 116.267 76.8945 113.676C72.8387 109.098 66.8057 102.023 69.2815 93.3489C71.0874 87.0219 76.3224 85.0857 84.4105 86.4626C94.9888 88.2677 104.586 92.8911 112.018 97.197C122.849 103.467 132.881 110.294 143.756 116.96Z" fill="#FF5000"/>
<path fill-rule="evenodd" clip-rule="evenodd" d="M143.756 116.96C154.332 112.285 167.029 106.815 178.695 101.979C180.281 101.326 182.445 100.287 184.56 99.4818C186.379 98.7884 189.502 97.6737 191.215 97.9427C193.628 98.3277 197.647 104.977 199.083 107.061C200.354 108.902 201.299 110.735 202.309 112.396C203.48 114.332 205.326 116.203 205.582 118.973C205.887 122.309 203.226 124.014 200.647 125.657C193.12 130.468 186.06 133.821 177.796 138.117C167.151 143.647 157.31 150.304 142.219 149.887C134.92 149.687 126.642 147.019 119.549 143.913C106.265 138.096 94.7273 129.903 84.193 121.072C81.7339 119.02 79.1892 116.267 76.8945 113.676C72.8387 109.098 66.8057 102.023 69.2815 93.3489C71.0874 87.0219 76.3224 85.0857 84.4105 86.4626C94.9888 88.2677 104.586 92.8911 112.018 97.197C122.849 103.467 132.881 110.294 143.756 116.96Z" fill="#BD3B01"/>
<path d="M134.071 119.358C134.85 121.38 138.519 119.54 140.513 118.578C141.57 118.063 142.754 117.541 143.731 116.945C141.998 115.88 140.272 114.805 138.552 113.72C138.037 114.148 137.51 114.652 136.881 115.251C136.058 116.031 133.507 117.885 134.071 119.358Z" fill="#BC4A17"/>
<path fill-rule="evenodd" clip-rule="evenodd" d="M198.708 95.5139C201.001 97.3365 203.439 100.94 205.551 104.309C206.568 105.95 207.618 107.57 208.701 109.168C209.733 110.672 211.544 113.101 211.583 114.615C211.63 116.705 207.575 121.247 204.804 120.788C202.738 120.442 198.589 111.954 197.591 110.241C196.388 108.169 195.701 107.196 194.122 104.816C193.197 103.419 191.05 100.814 191.511 98.7649C192.044 96.3877 196.45 95.9307 198.708 95.5139Z" fill="#FF5000"/>
<path fill-rule="evenodd" clip-rule="evenodd" d="M215.949 70.9358C217.532 71.0078 218.74 72.1134 220.032 72.7485C223.826 74.6241 227.964 76.5989 232.032 78.5821C237.326 81.1663 242.84 83.5602 247.868 86.6164C258.063 92.8184 268.901 98.0549 279.709 102.574C279.591 104.628 278.187 106.317 277.37 108.17C276.562 110.017 275.883 111.921 275.028 113.774C270.052 124.595 265.94 136.063 260.528 147.001C250.445 143.007 241.255 136.867 231.664 131.109C226.948 128.292 222.174 125.389 217.411 122.49C212.418 119.441 207.489 116.434 202.823 112.949C207.033 98.9157 211.197 84.8712 215.949 70.9358Z" fill="#FF5000"/>
<path fill-rule="evenodd" clip-rule="evenodd" d="M217.467 74.8931C223.38 79.9712 230.287 82.9812 237.658 84.7886C239.685 85.2857 242.555 85.119 243.772 85.942C245.228 86.9378 246.079 88.8149 247.273 89.941C254.297 96.6241 264.142 101.099 272.782 102.853C273.409 102.981 274.405 102.618 274.804 103.33C271.257 110.493 268.46 117.754 266.039 125.117C263.61 132.521 260.004 139.526 256.998 146.852C251.573 146.244 246.334 144.557 241.391 142.273C236.321 139.929 231.797 136.197 227.81 130.053C225.808 129.755 223.942 129.699 221.998 129.376C220.091 129.063 218.361 128.673 216.48 127.611C213.001 125.626 208.994 122.312 206.371 118.951C205.782 118.211 204.974 117.167 204.765 116.404C204.486 115.395 205.561 112.696 206.038 111.057C209.086 100.615 212.322 90.357 215.547 79.9924C216.075 78.2919 216.024 76.2723 217.467 74.8931Z" fill="white"/>
<path fill-rule="evenodd" clip-rule="evenodd" d="M227.452 128.708C227.31 128.54 227.312 128.399 227.424 128.276C230.817 117.797 235.167 107.224 239.063 96.7105C240.02 94.1203 240.793 91.4786 241.879 88.7671C242.193 87.9904 242.277 86.7589 243.456 86.5968C243.949 87.5281 243.045 88.4822 242.726 89.3309C237.996 102.12 233.208 115.569 228.348 128.576C227.942 128.997 227.795 128.483 227.452 128.708ZM213.863 99.8107C215.474 99.9077 217.983 101.498 218.856 103.056C217.023 102.942 214.784 101.592 213.863 99.8107ZM215.803 93.5694C217.123 92.8502 218.183 94.3014 219.035 94.8213C220.963 95.9914 222.939 96.9166 225.081 97.82C226.006 98.208 227.543 98.5194 227.729 99.6774C225.505 99.6167 223.365 98.4088 221.362 97.341C219.407 96.3104 217.002 95.3851 215.803 93.5694ZM216.662 86.0178C217.504 85.1107 218.283 86.3262 218.772 86.6536C223.041 89.5333 227.582 91.759 232.122 93.8521C232.764 94.1446 233.681 94.4629 233.922 95.1441C233.329 96.1255 232.325 95.132 231.828 94.9433C229.769 94.1673 227.548 93.1185 225.339 92.0136C222.371 90.5226 219.543 88.7683 216.888 86.7718C216.743 86.5088 216.427 86.2178 216.662 86.0178ZM218.464 81.8938C219.704 81.2307 220.488 82.5947 221.152 83.0563C225.514 86.0746 231.363 88.4072 236.53 89.5886C237.386 89.7849 238.582 89.7242 239.117 90.5813C237.655 91.5665 235.482 90.498 233.853 90.0031C228.858 88.489 223.127 86.0814 218.694 82.6508C218.41 82.3659 218.543 82.1514 218.464 81.8938ZM232.608 124.856C234.016 124.512 234.799 125.864 235.596 126.493C240.824 130.642 247.424 134.063 253.494 135.867C254.408 136.141 255.834 135.882 256.19 137.021C254.113 137.363 251.948 136.476 249.98 135.711C246.057 134.199 242.16 132.486 238.353 130.082C236.146 128.689 233.835 126.987 232.608 124.856ZM234.704 116.934C236.084 116.132 236.909 117.914 237.698 118.57C243.193 123.181 250.09 126.833 256.472 128.948C257.426 129.263 258.828 129.457 259.362 130.425C258.373 131.192 257.093 130.316 256.185 130.038C249.105 127.869 241.291 123.09 235.034 117.854C235.092 117.9 234.344 117.082 234.704 116.934ZM238.278 110.97C239.759 110.891 240.438 112.343 241.297 113.041C246.735 117.461 253.935 120.35 260.265 122.159C261.347 122.476 262.665 122.595 263.504 123.411C262.543 124.381 261.231 123.579 260.25 123.299C254.824 121.746 249.85 119.754 244.398 116.405C242.281 115.097 239.69 113.816 238.535 112.157C238.384 111.934 237.858 111.451 238.278 110.97ZM241.126 103.463C242.612 103.404 243.138 104.873 243.965 105.646C249.031 110.331 255.573 113.378 261.625 115.406C262.515 115.707 263.936 115.967 264.167 117.106C263.013 117.623 262.058 116.768 261.062 116.455C254.091 114.199 247.316 110.756 241.183 104.329C240.9 103.997 240.846 103.701 241.126 103.463ZM243.808 97.6358C244.98 97.0652 245.824 98.8066 246.723 99.547C251.92 103.778 258.05 106.74 264.126 108.123C265.12 108.349 266.373 108.557 267.085 109.326C266.197 110.033 264.796 109.709 263.763 109.49C258.896 108.438 254.076 106.059 249.548 102.86C247.364 101.317 244.948 100.042 243.808 97.6358Z" fill="#0077B6"/>
<path fill-rule="evenodd" clip-rule="evenodd" d="M76.5921 242.174C70.3106 234.482 64.8581 226.062 63.1386 213.64C61.451 201.452 62.2005 188.25 62.6771 174.823C63.1129 162.609 63.1788 148.514 63.1993 135.714C63.2159 121.921 63.7282 109.934 68.1394 100.894C71.6618 93.6793 78.8579 87.4842 90.0311 89.2248C94.769 89.9675 99.3757 92.2546 103.211 94.6258C114.796 101.769 120.648 116.076 122.353 133.616C123.24 142.7 122.412 152.022 122.08 161.259C121.916 165.755 121.74 170.341 121.673 174.72C121.604 179.417 121.263 183.895 121.27 188.179C121.273 190.25 121.88 192.968 121.552 194.637C121.18 196.565 117.856 198.934 116.099 200.854C103.188 214.955 89.1975 228.757 76.5921 242.174Z" fill="#FF5000"/>
<path d="M66.6383 102.389C62.2309 111.422 61.7224 123.412 61.6981 137.205C61.6777 150.005 61.6118 164.099 61.1798 176.314C60.6993 189.742 59.9537 202.94 61.6413 215.13C63.3615 227.551 68.8095 235.971 75.0917 243.662C78.5943 239.933 82.2076 236.175 85.8724 232.388C81.6521 228.449 77.8835 224.107 75.7594 219.237C72.134 210.917 71.6172 199.85 70.6858 188.843C69.7302 177.43 69.6203 165.881 69.1914 154.798C68.7723 144.006 69.0861 132.956 69.759 122.413C70.4319 111.964 71.3118 101.459 74.7249 93.8164C74.8667 93.5012 75.0152 93.2155 75.1675 92.9359C71.3095 95.1638 68.4722 98.6354 66.6383 102.389Z" fill="#FF5000"/>
<path d="M66.6383 102.389C62.2309 111.422 61.7224 123.412 61.6981 137.205C61.6777 150.005 61.6118 164.099 61.1798 176.314C60.6993 189.742 59.9537 202.94 61.6413 215.13C63.3615 227.551 68.8095 235.971 75.0917 243.662C78.5943 239.933 82.2076 236.175 85.8724 232.388C81.6521 228.449 77.8835 224.107 75.7594 219.237C72.134 210.917 71.6172 199.85 70.6858 188.843C69.7302 177.43 69.6203 165.881 69.1914 154.798C68.7723 144.006 69.0861 132.956 69.759 122.413C70.4319 111.964 71.3118 101.459 74.7249 93.8164C74.8667 93.5012 75.0152 93.2155 75.1675 92.9359C71.3095 95.1638 68.4722 98.6354 66.6383 102.389Z" fill="#BD3B01"/>
<path fill-rule="evenodd" clip-rule="evenodd" d="M73.1183 208.415C69.8605 210.884 67.8569 200.486 71.7361 201.55C73.7617 202.1 73.6897 206.514 73.1183 208.415ZM70.4107 215.007C70.5797 214.158 71.3837 212.51 73.0615 212.98C75.2486 213.588 76.4141 218.001 77.2052 219.663C78.176 221.684 80.8996 225.051 79.4597 227.121C77.4038 230.075 74.1566 224.427 73.1229 222.441C72.5765 221.383 72.1377 220.292 71.7164 219.373C70.995 217.804 70.0871 216.64 70.4107 215.007Z" fill="white"/>
<path fill-rule="evenodd" clip-rule="evenodd" d="M197.873 141.336C190.004 142.851 182.513 144.749 175.37 146.628C178.623 154.768 181.626 161.416 184.958 169.042C189.357 167.441 193.635 165.696 197.754 163.914C204.111 161.155 211.481 157.899 218.998 154.746C224.015 152.636 229.784 150.298 235.057 147.865C239.535 145.808 240.136 141.845 235.345 139.655C228.865 136.698 222.226 138.158 215.788 138.877C209.679 139.568 203.733 140.209 197.873 141.336Z" fill="#F7C4AD"/>
<path fill-rule="evenodd" clip-rule="evenodd" d="M243.578 144.136C244.617 144.583 248.376 145.418 249.938 146.409C250.546 146.788 251.153 147.422 250.933 148.014C250.481 149.263 247.583 148.333 246.528 148.147C244.698 147.825 243.406 147.711 241.86 147.392C242.977 148.062 246.622 148.858 248.607 149.967C249.436 150.439 250.305 151.12 249.992 151.87C249.601 152.827 247.129 152.336 246.292 152.193C242.278 151.518 237.78 150.793 234.49 150.897C230.712 151.011 227.447 151.608 223.971 152.882C223.132 153.191 221.467 154.197 220.637 153.878C220.235 153.723 219.607 152.817 219.431 152.437C218.816 151.156 218.564 149.454 218.158 147.347C218.001 146.54 217.813 145.751 217.757 144.713C217.713 143.869 217.478 142.445 217.63 142.067C217.857 141.465 219.208 140.705 220.018 140.265C222.375 138.978 225.821 137.438 227.796 136.424C229.52 135.554 231.236 134.669 232.945 133.769C234.502 132.95 239.566 130.223 240.889 132.062C241.969 133.573 236.738 135.63 235.726 136.674C238.241 136.395 242.372 136.58 246.45 137.754C247.513 138.061 249.796 138.604 249.715 139.576C249.603 140.911 247.77 140.548 246.91 140.545C245.702 140.54 244.812 140.654 243.779 140.464C245.165 141.144 248.567 141.817 250.091 142.851C250.588 143.189 251.059 143.777 250.913 144.249C250.569 145.333 248.811 144.76 247.592 144.603C245.928 144.388 244.836 144.355 243.688 144.184C243.652 144.168 243.615 144.151 243.578 144.136Z" fill="#F7C4AD"/>
<path fill-rule="evenodd" clip-rule="evenodd" d="M142.393 142.56C153.905 141.471 167.684 140.302 180.284 139.409C181.991 139.286 184.377 138.987 186.636 138.89C188.579 138.815 191.894 138.743 193.435 139.54C195.601 140.663 197.309 148.249 198.017 150.678C198.633 152.827 198.955 154.868 199.38 156.758C199.888 158.966 201.043 161.325 200.41 164.033C199.645 167.298 196.577 168.068 193.614 168.816C184.944 171.001 177.191 171.942 167.993 173.4C156.146 175.281 144.7 178.479 130.516 173.307C123.658 170.807 116.643 165.657 110.902 160.468C100.142 150.741 91.7946 139.317 84.5901 127.608C82.9093 124.879 81.3671 121.471 80.0091 118.282C77.6114 112.659 74.124 104.045 79.2203 96.59C82.9282 91.158 88.5216 90.9746 95.7519 94.8463C105.211 99.907 112.856 107.334 118.545 113.767C126.831 123.144 134.188 132.793 142.393 142.56Z" fill="#FF5000"/>
<path opacity="0.19" fill-rule="evenodd" clip-rule="evenodd" d="M142.393 142.56C153.905 141.471 167.684 140.302 180.284 139.409C181.991 139.286 184.377 138.987 186.636 138.89C188.579 138.815 191.894 138.743 193.435 139.54C195.601 140.663 197.309 148.249 198.017 150.678C198.633 152.827 198.955 154.868 199.38 156.758C199.888 158.966 201.043 161.325 200.41 164.033C199.645 167.298 196.577 168.068 193.614 168.816C184.944 171.001 177.191 171.942 167.993 173.4C156.146 175.281 144.7 178.479 130.516 173.307C123.658 170.807 116.643 165.657 110.902 160.468C100.142 150.741 91.7946 139.317 84.5901 127.608C82.9093 124.879 81.3671 121.471 80.0091 118.282C77.6114 112.659 74.124 104.045 79.2203 96.59C82.9282 91.158 88.5216 90.9746 95.7519 94.8463C105.211 99.907 112.856 107.334 118.545 113.767C126.831 123.144 134.188 132.793 142.393 142.56Z" fill="white"/>
<path d="M132.454 141.769C132.549 143.935 136.609 143.352 138.806 143.068C139.97 142.917 141.259 142.796 142.379 142.538C141.07 140.981 139.771 139.415 138.482 137.841C137.858 138.083 137.207 138.396 136.415 138.765C135.386 139.247 132.382 140.196 132.454 141.769Z" fill="black"/>
<path fill-rule="evenodd" clip-rule="evenodd" d="M201.903 138.724C203.496 141.187 204.67 145.37 205.613 149.243C206.071 151.135 206.526 152.961 207.062 154.839C207.561 156.597 208.518 159.473 208.07 160.922C207.456 162.918 202.174 165.94 199.693 164.628C197.836 163.648 196.586 154.287 196.183 152.342C195.696 150.001 195.357 148.859 194.606 146.102C194.173 144.482 192.962 141.331 194.043 139.534C195.303 137.443 199.627 138.409 201.903 138.724Z" fill="#FF5000"/>
<path fill-rule="evenodd" clip-rule="evenodd" d="M144.009 172.245C142.708 173.981 136.69 172.689 136.698 170.679C136.714 167.17 144.917 169.624 144.009 172.245ZM132.801 168.01C131.698 171.814 123.246 166.135 124.121 163.984C125.388 160.885 132.21 166.419 132.801 168.01Z" fill="white"/>
<path d="M74.2262 87.9813C82.4416 88.2003 89.218 91.3088 95.551 95.52C95.7124 94.2287 95.7034 89.1597 95.6541 87.5205L95.6859 78.6458L69.9089 78.5526L69.9658 88.6118C71.2237 88.1775 72.6333 87.9388 74.2262 87.9813Z" fill="#F7C4AD"/>
<path d="M68.069 66.0638C68.0766 66.0047 65.913 57.1777 60.8433 53.7297C62.3824 45.6468 65.8297 32.1237 72.1112 28.6438C81.3557 23.5271 95.082 26.6621 101.154 33.0747C106.366 38.581 110.938 50.6643 111.038 62.5968C111.126 74.6703 106.157 84.5977 91.8977 79.8757C90.4176 83.1699 90.0744 87.616 88.8232 91.1429C88.8338 91.1452 88.8475 91.155 88.8581 91.1573C81.9536 99.4637 67.2771 91.8325 62.8575 89.2385C64.3595 86.5445 64.1185 85.8844 64.824 83.198C65.494 80.6548 67.9083 69.1064 68.069 66.0638Z" fill="#F7C4AD"/>
<path fill-rule="evenodd" clip-rule="evenodd" d="M88.4238 55.221C89.6219 53.7774 90.839 53.0643 91.9552 52.7733C94.6303 52.9855 95.3646 53.7145 95.3646 53.7145C95.3646 53.7145 95.3328 54.4958 93.6474 55.8705C93.3845 55.9614 93.1011 56.044 92.7964 56.113C90.6836 56.6018 88.4238 55.221 88.4238 55.221Z" fill="white"/>
<path fill-rule="evenodd" clip-rule="evenodd" d="M96.6189 53.7145C96.6189 53.7145 94.5857 52.1004 91.9568 52.7779C91.8901 52.9862 91.7355 53.4152 91.7378 53.6463C91.7545 54.6921 92.5585 55.5681 93.6467 55.8675C95.8376 55.1066 96.6189 53.7145 96.6189 53.7145Z" fill="#175474"/>
<path d="M96.6666 50.9061C95.0653 50.2005 90.5692 49.6905 87.6463 52.7869L86.6377 51.8336C89.7978 48.4932 94.7304 48.5356 97.2243 49.6382L96.6666 50.9061Z" fill="#175474"/>
<path fill-rule="evenodd" clip-rule="evenodd" d="M103.26 53.4652C104.37 52.1284 105.499 51.4691 106.536 51.2001C108.867 51.388 109.67 52.2186 109.67 52.2186C109.67 52.2186 109.674 52.7998 108.104 54.0737C107.859 54.1593 107.594 54.2374 107.31 54.3033C105.347 54.7588 103.26 53.4652 103.26 53.4652Z" fill="white"/>
<path fill-rule="evenodd" clip-rule="evenodd" d="M110.863 52.0685C110.863 52.0685 108.969 50.5749 106.535 51.1993C106.475 51.3971 106.327 51.795 106.33 52.0094C106.344 52.9832 107.089 53.7971 108.104 54.0737C110.134 53.3583 110.863 52.0685 110.863 52.0685Z" fill="#175474"/>
<path d="M110.882 49.5208C109.41 48.86 105.262 48.3871 102.565 51.2524L101.56 50.2907C104.511 47.1738 109.117 47.2223 111.443 48.2461L110.882 49.5208Z" fill="#175474"/>
<path fill-rule="evenodd" clip-rule="evenodd" d="M100.69 53.3432C101.491 53.0817 104.616 60.4052 104.516 61.2343C104.38 62.274 100.912 63.2198 100.6 62.8431C99.7062 61.7754 99.4849 53.735 100.69 53.3432Z" fill="#B79180"/>
<path d="M106.903 67.7363C103.102 70.2689 98.6452 68.4146 96.1058 65.6235L97.2918 64.5565C99.378 66.858 103.004 68.4191 106.02 66.4147L106.903 67.7363ZM94.2189 60.1938C94.7618 60.9687 94.9759 61.9272 94.8141 62.8595C94.6524 63.7918 94.128 64.6221 93.3557 65.1688C92.5806 65.7107 91.6224 65.9235 90.6908 65.7608C89.7592 65.598 88.93 65.0729 88.3845 64.3004C87.8686 63.5259 87.6756 62.5806 87.8468 61.6659C88.0179 60.7512 88.5395 59.9395 89.3005 59.4039C90.0614 58.8683 91.0015 58.6511 91.9203 58.7987C92.8391 58.9462 93.6639 59.4469 94.2189 60.1938ZM107.917 61.5389C108.651 62.5817 109.842 63.0993 111.029 63.0371C111.029 62.8909 111.04 62.7431 111.037 62.5953C111.015 60.3715 110.848 58.1516 110.539 55.9493C109.909 55.996 109.303 56.21 108.783 56.5692C108.011 57.1149 107.487 57.944 107.325 58.8753C107.162 59.8066 107.375 60.7643 107.917 61.5389Z" fill="#B79180"/>
<path d="M22.7473 120.961C25.2753 108.671 37.7967 101.507 42.0124 91.1936C44.0479 86.2072 43.6818 81.6247 43.8319 76.6452C43.8395 76.5876 43.8395 76.5216 43.8395 76.4572L43.8736 75.7077C44.1509 70.1825 46.2963 65.741 49.0616 61.9853C51.5889 58.5471 55.1438 55.8985 56.5457 52.0337C57.7999 48.544 56.5897 45.6612 56.7284 42.9937C57.5028 27.0547 71.3966 22.1774 85.9761 25.0503C89.6924 25.7853 94.4159 26.9849 97.5199 28.5301C102.107 30.8187 105.965 34.6767 108.814 38.5189C111.781 42.511 113.951 47.5406 114.425 52.9984C122.916 59.0002 127.374 69.0269 124.712 82.9509L105.467 81.0844C116.128 68.9124 108.814 38.5181 102.273 36.9835C98.6066 41.616 93.2375 43.988 85.7526 43.5909C85.9094 48.1711 85.9208 52.8658 85.4813 57.8999L82.5061 58.1273C82.522 53.763 81.5437 48.234 77.1764 47.6907C74.687 47.3845 72.0051 49.0964 71.5284 51.9852C70.8525 56.0584 74.1641 58.9502 77.2279 61.1964C80.51 63.6002 83.9391 65.6895 86.2239 67.9136C91.1361 72.6954 93.0844 77.4613 93.4519 83.5541V83.589C94.2029 90.3078 92.5865 94.7402 91.7817 97.1341C88.9301 105.621 83.1745 108.886 79.4839 115.447C78.4298 117.331 77.4083 119.976 77.3681 122.396C77.3075 126.681 79.2248 130.423 80.3069 134.069C81.6786 138.682 81.7407 142.696 81.0564 146.23L22.5169 130.727C22.3002 127.254 22.1592 123.858 22.7473 120.961Z" fill="#175474"/>
<path fill-rule="evenodd" clip-rule="evenodd" d="M34.6184 111.978C33.4445 113.362 32.9603 116.382 32.6715 119.379C32.5488 120.659 32.3775 122.738 33.518 122.981C34.8738 123.271 35.4421 120.941 35.6437 120.106C36.2727 117.466 36.4962 114.147 36.0999 112.346C35.8392 112.005 35.095 111.85 34.6184 111.978ZM29.7858 118.92C27.1009 117.776 25.6277 124.003 28.0375 124.292C29.081 124.421 30.9172 121.676 30.7596 120.105C30.702 119.54 30.2579 119.118 29.7858 118.92ZM82.5068 91.7522C85.4759 91.4165 82.8607 98.6899 80.8192 96.5741C79.7522 95.473 81.4421 92.7328 82.5068 91.7522ZM86.668 88.6247C86.2451 89.093 85.1258 89.8243 84.249 88.9081C83.0987 87.7107 84.0141 84.5082 84.1308 83.1699C84.2831 81.5406 83.8247 78.4116 85.504 77.647C87.8911 76.558 87.8251 81.3148 87.7319 82.9479C87.6834 83.8171 87.5516 84.6659 87.4728 85.3964C87.3432 86.6513 87.4788 87.7191 86.668 88.6247Z" fill="white"/>
</g>
<defs>
<clipPath id="clip0_1_252">
<rect width="388" height="388" fill="white"/>
</clipPath>
</defs>
</svg>
