<svg width="388" height="388" viewBox="0 0 388 388" fill="none" xmlns="http://www.w3.org/2000/svg">
<path d="M193.999 388C177.884 388 161.892 386.001 146.468 382.058C126.637 377.009 107.775 368.791 90.4161 357.636C75.8789 348.27 62.6655 336.993 51.1304 324.109C19.6342 288.939 2.28937 243.538 2.28937 196.27C2.28937 128.611 37.3693 66.9194 94.6887 32.251C91.8476 25.6133 92.4895 19.7933 96.6279 14.8592C100.246 10.545 105.326 8.16846 110.93 8.16846C113.611 8.16846 116.234 8.72394 118.732 9.63104C119.477 8.32249 120.366 7.10096 121.382 5.98899C124.925 2.12718 129.815 0 135.15 0C136.188 0 137.254 0.0803281 138.322 0.238711C141.463 0.704008 147.576 2.48411 151.847 9.21652C165.684 6.11634 179.821 4.55461 194 4.55976C299.71 4.55976 385.711 90.5601 385.711 196.27C385.711 238.855 372.044 279.171 346.185 312.861C335.083 327.362 321.963 340.2 307.225 350.985C300.692 355.797 293.62 360.305 286.235 364.363C286.073 364.455 285.906 364.548 285.735 364.637C276.23 369.806 266.457 374.134 256.683 377.504C256.568 377.543 256.452 377.58 256.337 377.616C236.359 384.506 215.388 388 193.999 388Z" fill="white"/>
<path d="M374.117 196.806C374.117 237.93 360.301 275.846 337.058 306.13C326.658 319.717 220.288 322.516 199.698 322.516C184.317 322.516 71.1624 328.744 60.362 316.683C31.891 284.891 14.5644 242.871 14.5644 196.806C14.5644 97.5199 95.0547 17.0303 194.341 17.0303C293.627 17.0303 374.117 97.5199 374.117 196.806Z" fill="#FF7130"/>
<path d="M316.977 189.15C314.193 188.113 310.907 187.761 308.99 185.492C305.786 181.7 308.728 176.115 310.398 171.44C314.756 159.239 307.717 144.177 295.561 139.694C287.528 136.731 277.159 137.342 272.281 130.305C267.795 123.833 270.957 115.134 272.598 107.431C275.66 93.0526 272.578 77.7137 265.422 64.8725C258.264 52.0314 248.085 42.317 235.59 34.5729C234.366 33.8144 231.026 32.8087 229.594 32.6678C219.638 31.6887 209.362 31.9024 199.23 33.0005C189.098 31.9031 183.67 29.2091 173.713 30.1882C172.28 30.3292 164.942 33.0937 163.719 33.8522C151.222 41.5963 140.195 52.0322 133.038 64.8725C125.88 77.7137 122.799 93.0526 125.861 107.431C127.501 115.134 130.664 123.833 126.178 130.305C121.3 137.342 110.932 136.731 102.898 139.694C90.7428 144.177 83.7035 159.239 88.0624 171.44C89.7326 176.115 92.6745 181.7 89.4704 185.492C87.5532 187.761 84.2665 188.113 81.4831 189.15C72.5136 192.49 68.6518 203.767 70.5713 213.144C72.4901 222.52 78.7027 230.361 84.8516 237.696C85.2585 237.727 85.1532 237.88 85.3661 238.228H313.095C313.309 237.88 313.202 237.727 313.609 237.696C319.759 230.362 325.971 222.521 327.89 213.144C329.808 203.767 325.947 192.49 316.977 189.15Z" fill="#341D21"/>
<path d="M242.411 192.406C232.964 202.177 224.558 231.135 211.715 235.467C186.813 243.844 154.554 216.431 135.09 198.857C144.479 195.498 153.409 193.17 160.451 191.624C169.248 189.697 175.603 182.007 175.946 173.018L176.041 164.87L185.278 159.699L218.424 156.169L223.214 162.791L223.462 173.019C223.805 182.007 230.159 189.697 238.957 191.625C240.063 191.871 241.209 192.139 242.411 192.406Z" fill="#FF9582"/>
<path d="M223.215 162.789C217.086 169.037 208.927 173.276 200.231 173.893C195.355 174.251 190.4 173.336 185.923 171.385C182.978 170.092 179.137 167.764 176.033 164.878L176.113 158.431L223.017 153.615L223.215 162.789Z" fill="#341D21"/>
<path d="M337.058 306.13C326.643 319.73 314.338 331.772 300.516 341.891C294.218 346.528 267.002 336.521 260.112 340.299C260.055 340.337 262.656 363.473 253.134 366.755H253.115C234.7 373.148 214.931 376.602 194.341 376.602C178.96 376.602 164.019 374.675 149.764 371.03C140.578 368.691 143.945 347.407 135.387 343.709C126.345 339.802 105.417 353.404 97.2114 348.131C83.5754 339.346 71.1816 328.769 60.3628 316.683C63.8548 296.99 69.6945 269.587 78.6056 244.551C79.7507 241.325 81.2201 238.292 82.9562 235.41C93.8907 217.244 115.511 205.813 135.09 198.848C135.51 199.229 135.949 199.611 136.387 199.993C155.832 216.69 184.284 222.51 208.633 214.324C221.476 209.992 232.964 202.168 242.41 192.398C264.45 197.626 300.478 209.687 316.03 234.742C317.958 237.833 319.551 241.121 320.781 244.551C328.185 265.37 333.49 287.849 337.058 306.13Z" fill="#F7EDE5"/>
<path d="M114.759 349.378C114.585 349.378 114.416 349.314 114.285 349.198C114.155 349.082 114.071 348.922 114.05 348.748C114.033 348.616 112.429 335.204 113.397 321.328C114.362 307.482 120.169 275.45 120.227 275.128C120.263 274.942 120.371 274.778 120.526 274.671C120.681 274.563 120.873 274.521 121.059 274.552C121.246 274.586 121.412 274.693 121.52 274.849C121.628 275.005 121.67 275.198 121.636 275.385C121.577 275.705 115.785 307.661 114.825 321.428C113.867 335.161 115.454 348.442 115.47 348.576C115.483 348.677 115.474 348.779 115.444 348.876C115.413 348.973 115.363 349.062 115.296 349.138C115.229 349.214 115.146 349.274 115.054 349.316C114.961 349.357 114.861 349.378 114.759 349.378ZM283.627 322.211C283.627 323.356 283.627 324.501 283.608 325.627C283.36 338.222 281.299 349.404 281.28 349.537C281.261 349.709 281.166 349.843 281.032 349.957C280.975 349.995 280.899 350.033 280.823 350.072C280.742 350.093 280.659 350.106 280.575 350.109H280.441C280.059 350.033 279.811 349.652 279.868 349.27C279.906 349.136 282.024 337.534 282.177 324.673C282.196 323.871 282.196 323.031 282.196 322.211C282.1 308.415 278.303 276.165 278.265 275.841C278.244 275.651 278.298 275.461 278.415 275.311C278.533 275.161 278.705 275.063 278.895 275.039C279.276 274.981 279.639 275.287 279.696 275.669C279.734 275.993 283.533 308.319 283.627 322.211ZM229.986 351.586H177.854C176.842 351.586 175.871 351.184 175.155 350.468C174.44 349.752 174.038 348.781 174.038 347.769V245.293C174.038 244.28 174.44 243.31 175.155 242.594C175.871 241.878 176.842 241.476 177.854 241.476H229.986C230.998 241.476 231.969 241.878 232.685 242.594C233.401 243.31 233.803 244.28 233.803 245.293V347.77C233.802 348.782 233.4 349.753 232.685 350.468C231.969 351.184 230.998 351.586 229.986 351.586Z" fill="#341D21"/>
<path d="M223.975 245.467C221.037 245.467 218.632 247.871 218.632 250.81C218.632 253.768 221.037 256.154 223.975 256.154H224.147C227.086 256.154 229.491 253.768 229.491 250.81C229.49 247.871 227.085 245.467 223.975 245.467ZM224.147 254.722H223.975C222.938 254.72 221.944 254.308 221.21 253.574C220.477 252.841 220.064 251.847 220.063 250.81C220.063 248.654 221.819 246.898 224.147 246.898C225.184 246.9 226.178 247.313 226.911 248.046C227.644 248.779 228.057 249.773 228.058 250.81C228.057 251.847 227.645 252.842 226.911 253.575C226.178 254.308 225.184 254.721 224.147 254.722ZM212.373 247.413H209.606C207.679 247.413 206.133 248.978 206.133 250.905C206.134 251.826 206.5 252.709 207.151 253.361C207.802 254.012 208.685 254.378 209.606 254.378H212.373C214.281 254.378 215.846 252.813 215.846 250.905C215.846 248.978 214.281 247.413 212.373 247.413ZM212.373 252.947H209.606C209.065 252.947 208.546 252.731 208.164 252.349C207.781 251.966 207.565 251.447 207.565 250.906C207.563 250.636 207.615 250.369 207.716 250.119C207.818 249.87 207.968 249.643 208.158 249.451C208.348 249.26 208.573 249.108 208.822 249.004C209.07 248.899 209.337 248.845 209.606 248.844H212.373C212.643 248.845 212.909 248.899 213.158 249.004C213.407 249.108 213.632 249.26 213.822 249.451C214.012 249.643 214.162 249.87 214.264 250.119C214.365 250.369 214.417 250.636 214.416 250.906C214.414 251.447 214.199 251.966 213.816 252.348C213.433 252.731 212.914 252.946 212.373 252.947Z" fill="#F7EDE5"/>
<path d="M201.649 309.355C201.553 310.481 201.21 311.664 200.751 312.771C200.198 314.183 199.454 315.481 198.805 316.492C198.157 317.523 197.603 318.248 197.45 318.419C197.45 318.438 197.431 318.457 197.431 318.457C197.431 318.457 197.507 318.705 197.603 319.144C197.985 320.805 198.786 325.174 197.756 328.533C196.745 331.815 193.157 333.131 191.63 333.551C191.287 333.647 191.057 333.704 190.963 333.723C191.01 333.722 191.056 333.735 191.096 333.761C191.383 333.952 191.917 334.925 190.924 339.886C190.084 344.066 178.387 346.184 174.036 346.833C173.025 346.966 172.414 347.043 172.414 347.043L171.574 347.94H171.555L149.763 371.03C130.871 366.22 113.182 358.397 97.2092 348.131L112.628 337.654L114.039 336.7L146.098 314.889L153.578 290.196C153.578 290.196 161.688 280.445 164.608 272.659C167.547 264.855 170.467 256.745 170.467 256.745C170.467 256.745 172.432 256.745 174.035 262.87C174.449 264.492 174.774 266.136 175.008 267.794C176.382 277.125 175.428 285.77 175.104 288.212C175.047 288.651 175.008 288.899 175.008 288.899C175.008 288.899 197.335 288.174 199.281 291.743C201.094 295.025 199.644 302.524 199.415 303.688C199.396 303.784 199.377 303.84 199.377 303.84C199.377 303.84 199.625 303.974 199.969 304.26C200.713 304.928 201.877 306.455 201.649 309.355Z" fill="#FF9582"/>
<path d="M202.373 312.329C203.107 309.268 202.683 306.536 201.213 304.832C200.939 304.516 200.531 304.25 200.069 304.006C200.287 303.291 203.33 292.87 197.788 289.583C192.451 286.413 170.357 288.58 169.419 288.673C169.325 288.683 169.235 288.71 169.152 288.755C169.069 288.799 168.996 288.859 168.936 288.932C168.877 289.005 168.832 289.089 168.805 289.178C168.778 289.268 168.768 289.363 168.778 289.456C168.799 289.644 168.893 289.816 169.039 289.936C169.185 290.056 169.372 290.114 169.561 290.097C169.786 290.075 192.121 287.882 197.058 290.813C201.389 293.383 199.099 302.176 198.736 303.462C192.834 301.585 180.039 302.793 178.35 302.965C178.253 302.97 178.158 302.995 178.071 303.038C177.984 303.081 177.907 303.141 177.844 303.215C177.781 303.288 177.733 303.374 177.704 303.467C177.676 303.559 177.666 303.657 177.676 303.753C177.685 303.849 177.715 303.943 177.762 304.028C177.809 304.112 177.873 304.187 177.949 304.246C178.026 304.306 178.114 304.349 178.208 304.373C178.302 304.398 178.399 304.403 178.495 304.388C186.05 303.618 198.045 303.354 200.131 305.767C201.279 307.098 201.597 309.425 200.982 311.995C200.321 314.757 198.746 317.142 197.153 317.795C197.023 317.851 196.913 317.947 196.84 318.068C192.622 316.039 181.664 316.978 179.247 317.216C179.153 317.225 179.063 317.252 178.98 317.297C178.897 317.341 178.824 317.401 178.764 317.474C178.704 317.546 178.66 317.63 178.632 317.72C178.605 317.81 178.596 317.904 178.605 317.998C178.614 318.091 178.642 318.182 178.686 318.265C178.73 318.348 178.791 318.421 178.863 318.481C178.936 318.54 179.019 318.585 179.109 318.612C179.199 318.64 179.294 318.649 179.387 318.64C185.441 318.042 195.577 317.866 197 319.92C198.914 322.684 197.295 329.337 194.853 331.113C192.803 332.603 184.514 333.103 181.494 333.17C181.304 333.172 181.123 333.249 180.99 333.385C180.858 333.521 180.784 333.704 180.786 333.893C180.789 334.083 180.866 334.264 181.002 334.397C181.137 334.529 181.32 334.603 181.51 334.601H181.526C182.245 334.585 186.471 334.469 190.234 333.898C190.27 334.056 191.383 339.092 188.667 341.915C186.317 344.36 173.763 346.282 169.126 346.816C168.937 346.838 168.765 346.933 168.647 347.082C168.53 347.23 168.476 347.419 168.497 347.608C168.519 347.796 168.615 347.968 168.763 348.086C168.912 348.204 169.101 348.258 169.289 348.236C171.048 348.035 186.566 346.164 189.699 342.906C192.796 339.688 191.811 334.427 191.646 333.653C193.365 333.321 194.864 332.874 195.695 332.271C198.739 330.055 200.602 322.607 198.176 319.103C198.136 319.047 198.067 319.001 198.022 318.947C199.918 317.972 201.641 315.387 202.373 312.329Z" fill="#341D21"/>
<path d="M300.515 341.891C294.218 346.528 287.596 350.726 280.707 354.505C280.64 354.547 280.57 354.585 280.497 354.619C271.777 359.371 262.656 363.473 253.134 366.755H253.115L235.349 347.94H235.33L234.491 347.043C234.491 347.043 234.242 347.024 233.803 346.947C230.559 346.527 216.897 344.428 215.98 339.886C214.988 334.925 215.523 333.952 215.808 333.761H215.827C215.884 333.723 215.923 333.723 215.942 333.723C215.846 333.704 215.617 333.647 215.274 333.551C213.747 333.131 210.16 331.814 209.149 328.533C208.118 325.174 208.92 320.805 209.301 319.144C209.396 318.706 209.473 318.457 209.473 318.457C209.473 318.457 209.454 318.438 209.454 318.419C209.301 318.247 208.786 317.561 208.176 316.588C208.157 316.569 208.138 316.55 208.138 316.53C207.47 315.519 206.706 314.202 206.153 312.77C206.134 312.751 206.115 312.733 206.134 312.694C205.657 311.606 205.333 310.461 205.256 309.354C205.027 306.454 206.191 304.927 206.935 304.259C207.278 303.973 207.527 303.84 207.527 303.84C207.527 303.84 207.527 303.782 207.508 303.687C207.356 302.542 206.382 294.795 208.176 291.493C210.141 287.925 231.895 288.898 231.895 288.898C231.895 288.898 231.857 288.649 231.8 288.21C231.475 285.768 230.521 277.124 231.895 267.792C232.429 264.09 233.117 261.648 233.803 260.006C235.139 256.743 236.437 256.743 236.437 256.743C236.437 256.743 239.357 264.853 242.276 272.658C245.215 280.444 253.325 290.194 253.325 290.194L260.806 314.887L281.854 329.218L283.285 330.172L300.515 341.891Z" fill="#FF9582"/>
<path d="M237.777 346.815C233.139 346.28 220.586 344.359 218.236 341.914C215.53 339.102 216.632 334.053 216.668 333.897C220.431 334.468 224.658 334.583 225.377 334.6H225.393C225.487 334.601 225.58 334.584 225.668 334.549C225.755 334.514 225.834 334.462 225.901 334.396C225.969 334.33 226.022 334.252 226.059 334.166C226.096 334.079 226.115 333.986 226.116 333.893C226.118 333.799 226.1 333.705 226.065 333.618C226.03 333.531 225.978 333.452 225.913 333.384C225.847 333.317 225.769 333.264 225.682 333.227C225.596 333.19 225.503 333.17 225.409 333.169C222.388 333.103 214.099 332.603 212.05 331.112C209.608 329.336 207.988 322.683 209.903 319.92C211.326 317.866 221.459 318.043 227.516 318.639C227.7 318.649 227.881 318.587 228.02 318.467C228.16 318.347 228.248 318.177 228.266 317.994C228.285 317.811 228.231 317.627 228.117 317.482C228.004 317.337 227.838 317.241 227.656 317.215C225.239 316.976 214.28 316.038 210.063 318.068C209.988 317.946 209.878 317.851 209.748 317.794C208.156 317.141 206.581 314.757 205.92 311.997C205.304 309.425 205.623 307.097 206.77 305.767C208.856 303.352 220.852 303.62 228.405 304.387C228.499 304.399 228.594 304.391 228.685 304.364C228.775 304.338 228.86 304.294 228.933 304.234C229.006 304.174 229.066 304.101 229.111 304.017C229.155 303.934 229.182 303.843 229.19 303.749C229.2 303.655 229.191 303.561 229.164 303.471C229.137 303.381 229.093 303.297 229.033 303.224C228.974 303.151 228.901 303.091 228.818 303.046C228.735 303.001 228.644 302.974 228.551 302.964C226.863 302.793 214.068 301.585 208.164 303.461C207.801 302.175 205.506 293.386 209.841 290.812C214.778 287.879 237.114 290.076 237.339 290.097C237.527 290.112 237.714 290.054 237.86 289.935C238.007 289.815 238.1 289.643 238.122 289.456C238.131 289.362 238.122 289.268 238.095 289.178C238.068 289.088 238.023 289.004 237.964 288.931C237.904 288.859 237.831 288.798 237.748 288.754C237.665 288.71 237.575 288.682 237.481 288.673C236.544 288.58 214.447 286.414 209.111 289.582C203.571 292.869 206.613 303.287 206.831 304.005C206.368 304.248 205.96 304.514 205.686 304.831C204.216 306.534 203.794 309.266 204.528 312.328C205.259 315.386 206.984 317.971 208.88 318.945C208.833 319 208.765 319.045 208.726 319.102C206.299 322.605 208.162 330.054 211.207 332.27C212.037 332.873 213.536 333.319 215.254 333.652C215.089 334.425 214.106 339.686 217.202 342.905C220.336 346.163 235.853 348.034 237.612 348.235C237.706 348.247 237.802 348.241 237.894 348.217C237.986 348.192 238.071 348.149 238.147 348.091C238.222 348.033 238.284 347.96 238.331 347.877C238.378 347.795 238.407 347.703 238.418 347.609C238.429 347.515 238.421 347.419 238.395 347.328C238.369 347.237 238.324 347.151 238.265 347.078C238.205 347.004 238.131 346.942 238.047 346.897C237.964 346.852 237.872 346.824 237.777 346.815Z" fill="#341D21"/>
<path d="M251.152 89.1961C251.159 88.8255 251.18 88.4579 251.18 88.0851C251.18 57.1406 226.095 32.0555 195.15 32.0555C164.206 32.0555 139.121 57.1406 139.121 88.0851C139.123 91.6203 139.459 95.1473 140.124 98.6194C141.942 112.064 148.961 153.671 166.892 160.192C188.329 167.988 223.896 164.577 235.59 155.808C244.539 149.094 252.37 105.297 251.152 89.1961Z" fill="#FF9582"/>
<path d="M184.706 135.97C186.52 128.288 181.764 120.59 174.082 118.776C166.4 116.962 158.702 121.719 156.888 129.401C155.074 137.083 159.831 144.78 167.513 146.594C175.195 148.408 182.893 143.651 184.706 135.97Z" fill="#175474"/>
<path d="M241.923 132.665C241.923 140.558 235.524 146.957 227.631 146.957C219.738 146.957 213.339 140.558 213.339 132.665C213.339 124.772 219.738 118.373 227.631 118.373C235.524 118.373 241.923 124.772 241.923 132.665Z" fill="#175474"/>
<path d="M180.534 113.501C180.534 117.268 178.28 120.322 175.5 120.322C172.719 120.322 170.465 117.268 170.465 113.501C170.465 109.734 172.719 106.68 175.5 106.68C178.28 106.68 180.534 109.734 180.534 113.501ZM227.956 113.501C227.956 117.268 225.702 120.322 222.922 120.322C220.142 120.322 217.887 117.268 217.887 113.501C217.887 109.734 220.141 106.68 222.922 106.68C225.702 106.68 227.956 109.734 227.956 113.501ZM200.768 135.806C194.629 135.806 191.69 128.853 191.566 128.552C191.53 128.465 191.512 128.372 191.512 128.278C191.512 128.184 191.531 128.091 191.567 128.004C191.603 127.917 191.656 127.839 191.722 127.772C191.789 127.706 191.868 127.654 191.955 127.618C192.13 127.547 192.326 127.548 192.501 127.621C192.676 127.693 192.815 127.832 192.889 128.006C192.916 128.071 195.673 134.586 201.021 134.37C206.384 134.168 208.818 127.693 208.843 127.628C208.909 127.451 209.042 127.307 209.214 127.227C209.385 127.147 209.581 127.138 209.759 127.201C210.131 127.338 210.323 127.747 210.188 128.118C210.076 128.422 207.407 135.561 201.076 135.802C200.972 135.805 200.87 135.806 200.768 135.806ZM164.836 100.023C164.709 100.023 164.584 99.9893 164.474 99.9253C164.365 99.8612 164.274 99.7691 164.212 99.6584C164.15 99.5478 164.118 99.4225 164.12 99.2956C164.123 99.1686 164.159 99.0446 164.225 98.9362C166.366 95.4048 169.858 92.6858 173.808 91.4748C173.898 91.4466 173.992 91.4366 174.086 91.4452C174.18 91.4538 174.271 91.4809 174.354 91.525C174.437 91.5691 174.51 91.6292 174.57 91.7019C174.63 91.7745 174.674 91.8583 174.702 91.9484C174.729 92.0383 174.739 92.1327 174.73 92.2264C174.721 92.32 174.694 92.4109 174.65 92.494C174.606 92.5771 174.546 92.6506 174.473 92.7105C174.401 92.7703 174.317 92.8152 174.227 92.8426C170.609 93.9528 167.409 96.443 165.449 99.6781C165.385 99.7834 165.295 99.8704 165.187 99.9308C165.08 99.9912 164.959 100.023 164.836 100.023ZM230.79 95.6549C230.618 95.6555 230.453 95.5938 230.323 95.4813C227.451 93.02 223.67 91.6332 219.852 91.7188C219.479 91.6764 219.131 91.4111 219.124 91.0163C219.122 90.9223 219.139 90.8289 219.173 90.7413C219.207 90.6538 219.259 90.5739 219.324 90.5062C219.389 90.4385 219.467 90.3843 219.553 90.3467C219.64 90.3092 219.732 90.289 219.826 90.2873C223.976 90.213 228.122 91.7074 231.256 94.3962C231.367 94.4911 231.447 94.618 231.484 94.7597C231.521 94.9014 231.513 95.0511 231.462 95.1884C231.412 95.3257 231.32 95.4441 231.199 95.5276C231.079 95.611 230.936 95.6555 230.79 95.6549Z" fill="#341D21"/>
<path d="M242.41 39.1198C229.742 26.4522 186.542 24.8282 174.038 30.0253C150.327 38.1452 138.309 56.0099 132.138 71.2761C125.966 86.5422 132.787 107.98 132.787 107.98L144.155 124.87C144.155 124.87 169.165 76.7982 173.713 60.8827C174.38 58.5471 174.84 56.2411 175.171 53.9919C179.539 62.8227 204.163 77.3674 204.163 77.3674L202.945 59.8278C202.945 59.8278 224.383 91.0095 254.59 92.9586C254.59 92.9571 264.093 60.8031 242.41 39.1198Z" fill="#341D21"/>
<path d="M350.006 136.683C346.219 135.982 342.433 135.638 338.648 135.419C336.879 135.31 335.108 135.236 333.336 135.198C333.27 135.043 333.179 134.897 333.098 134.746C333.467 134.267 333.853 133.805 334.208 133.314C335.776 131.117 338.628 126.385 338.36 126.206C338.092 126.027 333.622 129.095 331.529 130.798C331.057 131.186 330.618 131.603 330.16 132.005C330.115 128.857 329.994 125.708 329.748 122.56C329.46 118.582 328.691 110.574 328.225 110.625C327.76 110.676 326.992 118.582 326.704 122.56C326.453 125.764 326.332 128.968 326.29 132.171C326.176 132.213 326.066 132.262 325.955 132.311C325.331 131.762 324.717 131.205 324.067 130.68C321.978 129.018 317.59 125.882 317.26 126.21C316.931 126.538 319.854 131.049 321.419 133.211C321.941 133.921 322.498 134.596 323.048 135.278C320.681 135.364 318.315 135.485 315.949 135.694C312.166 136.005 304.619 136.865 304.606 137.244C304.594 137.624 312.181 138.397 315.966 138.665C318.29 138.843 320.614 138.937 322.937 138.998C322.969 139.1 322.991 139.206 323.029 139.306C322.168 140.344 321.342 141.409 320.552 142.501C318.985 144.698 316.063 149.341 316.395 149.604C316.753 149.859 321.128 146.709 323.222 145.008C324.2 144.199 325.152 143.359 326.078 142.491C326.204 142.545 326.335 142.576 326.465 142.62C326.527 143.89 326.6 145.16 326.699 146.43C326.986 150.408 327.82 159.355 328.204 159.355C328.588 159.355 329.467 150.408 329.755 146.43C329.854 145.16 329.927 143.89 329.989 142.62C330.772 143.324 331.558 144.023 332.381 144.688C334.47 146.35 338.951 149.349 339.192 149.153C339.435 148.959 336.605 144.309 335.038 142.147C334.448 141.345 333.822 140.578 333.195 139.81C333.332 139.531 333.442 139.247 333.529 138.954C335.242 138.892 336.955 138.811 338.668 138.682C342.45 138.42 346.232 138.033 350.012 137.288C350.072 137.276 350.128 137.246 350.171 137.202C350.215 137.159 350.244 137.103 350.256 137.042C350.27 136.961 350.251 136.879 350.205 136.811C350.158 136.744 350.087 136.698 350.006 136.683ZM73.2691 234.125C69.4815 233.424 65.6955 233.08 61.911 232.861C60.1419 232.753 58.3708 232.679 56.5987 232.641C56.5328 232.485 56.4419 232.339 56.3608 232.188C56.7298 231.71 57.1156 231.248 57.471 230.756C59.0389 228.56 61.8913 223.827 61.623 223.649C61.3548 223.47 56.8852 226.537 54.7914 228.24C54.32 228.629 53.8797 229.047 53.422 229.447C53.3773 226.299 53.256 223.151 53.0097 220.002C52.7218 216.024 51.9526 208.016 51.488 208.067C51.0227 208.118 50.2543 216.024 49.9664 220.002C49.7155 223.205 49.595 226.409 49.5526 229.613C49.4389 229.655 49.3283 229.704 49.2176 229.753C48.5932 229.204 47.9794 228.646 47.3299 228.122C45.2406 226.46 40.8529 223.324 40.5233 223.652C40.1936 223.98 43.1165 228.491 44.6821 230.653C45.2035 231.362 45.7613 232.038 46.3107 232.72C43.944 232.807 41.5774 232.927 39.2107 233.136C35.4292 233.447 27.8814 234.307 27.8685 234.686C27.8557 235.066 35.4421 235.839 39.2274 236.107C41.5516 236.285 43.8751 236.379 46.1985 236.44C46.2303 236.542 46.2523 236.647 46.2895 236.748C45.429 237.785 44.603 238.851 43.8129 239.942C42.2465 242.14 39.3244 246.783 39.6563 247.045C40.014 247.301 44.3889 244.151 46.4835 242.45C47.4607 241.641 48.4127 240.801 49.3381 239.933C49.4647 239.986 49.5965 240.018 49.7254 240.061C49.7875 241.331 49.861 242.602 49.9595 243.872C50.2468 247.85 51.0811 256.797 51.4646 256.797C51.8488 256.797 52.7278 247.85 53.015 243.872C53.1143 242.602 53.1871 241.332 53.25 240.062C54.032 240.765 54.8186 241.465 55.6424 242.129C57.7309 243.792 62.2111 246.791 62.4536 246.595C62.6961 246.4 59.8664 241.751 58.2993 239.589C57.7097 238.787 57.083 238.02 56.457 237.252C56.5934 236.974 56.7033 236.689 56.7912 236.396C58.5039 236.334 60.2173 236.252 61.9299 236.124C65.7122 235.862 69.4937 235.474 73.2729 234.73C73.3433 234.716 73.4067 234.679 73.4522 234.623C73.4976 234.568 73.5223 234.498 73.5218 234.426C73.5214 234.354 73.4958 234.285 73.4497 234.23C73.4036 234.175 73.3397 234.138 73.2691 234.125Z" fill="#F7EDE5"/>
<path d="M334.282 227.883C334.282 227.883 336.579 179.652 344.387 177.815C352.196 175.978 351.277 191.135 351.277 191.135C351.277 191.135 364.598 177.815 368.273 187.461C370.597 193.562 334.282 227.883 334.282 227.883ZM74.2323 166.791C74.2323 166.791 46.2842 127.417 51.2956 121.154C56.3077 114.89 64.9362 127.387 64.9362 127.387C64.9362 127.387 67.2013 108.685 76.0442 114.009C81.6376 117.376 74.2323 166.791 74.2323 166.791ZM127.447 30.3655C127.447 30.3655 113.06 14.7826 106.111 23.0655C99.1635 31.3492 140.509 61.4965 140.509 61.4965C140.509 61.4965 152.661 14.9122 136.914 12.5804C125.188 10.8435 127.447 30.3655 127.447 30.3655ZM178.266 208.591C178.266 208.591 164.145 195.472 159.972 205.699C155.799 215.927 191.03 236.522 191.03 236.522C191.03 236.522 194.663 191.213 184.862 190.091C175.061 188.971 178.266 208.591 178.266 208.591ZM221.675 220.617C221.675 220.617 223.971 172.387 231.78 170.549C239.588 168.713 238.67 183.87 238.67 183.87C238.67 183.87 251.991 170.549 255.665 180.196C257.99 186.297 221.675 220.617 221.675 220.617ZM153.693 175.143C153.693 175.143 114.189 152.176 119.243 145.286C124.296 138.396 135.779 143.909 135.779 143.909C135.779 143.909 131.186 129.669 139.913 126.913C148.64 124.157 153.693 175.143 153.693 175.143ZM279.551 76.386C279.551 76.386 277.713 55.2567 267.149 57.5536C256.584 59.8505 270.823 108.999 270.823 108.999C270.823 108.999 308.948 79.6014 297.924 68.1182C289.715 59.5663 279.551 76.386 279.551 76.386Z" fill="#175474"/>
</svg>
